<?xml version="1.0" encoding="utf-8"?>
<!-- Generator: Adobe Illustrator 21.1.0, SVG Export Plug-In . SVG Version: 6.00 Build 0)  -->
<svg version="1.1" xmlns="http://www.w3.org/2000/svg" xmlns:xlink="http://www.w3.org/1999/xlink" x="0px" y="0px"
	 viewBox="0 0 504 1435.4" style="enable-background:new 0 0 504 1435.4;" xml:space="preserve">
<style type="text/css">
	.st0{fill:#282828;}
	.st1{fill:#FFFFFF;}
	.st2{clip-path:url(#SVGID_2_);}
	.st3{fill:none;stroke:#CCCEC4;stroke-width:0.5;stroke-miterlimit:10;stroke-dasharray:14.9679,14.9679;}
	.st4{fill:none;stroke:#CCAA72;stroke-width:0.5;stroke-miterlimit:10;stroke-dasharray:15.016,15.016;}
	.st5{fill:none;stroke:#4586A3;stroke-width:0.5;stroke-miterlimit:10;stroke-dasharray:14.9823,14.9823;}
	.st6{fill:none;stroke:#EF7443;stroke-width:0.5;stroke-miterlimit:10;stroke-dasharray:14.9976,14.9976;}
	.st7{fill:#FF9640;}
	.st8{display:none;fill:none;stroke:#939598;stroke-miterlimit:10;}
	.st9{fill:#CCCEC4;}
	.st10{display:none;}
	.st11{display:inline;}
	.st12{clip-path:url(#SVGID_4_);}
	.st13{opacity:0.24;fill:#606060;}
	.st14{opacity:0.12;fill:#606060;}
	.st15{opacity:7.000000e-02;fill:#606060;}
	.st16{opacity:0.13;fill:#606060;}
	.st17{opacity:0.3;fill:#606060;}
	.st18{opacity:0.22;fill:#606060;}
	.st19{opacity:0.15;fill:#606060;}
	.st20{display:inline;opacity:0.3;fill:#7F7F7F;}
	.st21{opacity:0.33;}
	.st22{fill:#1E1E1E;}
	.st23{fill:none;stroke:#E4E5DF;stroke-width:0.75;stroke-miterlimit:10;}
	.st24{fill:#E4E5DF;}
	.st25{fill:#9A9B97;stroke:#E4E5DF;stroke-width:2;stroke-miterlimit:10;}
	.st26{fill:none;}
	.st27{font-family:'GillSans-Light';}
	.st28{font-size:12px;}
	.st29{font-family:'GillSans';}
	.st30{fill:#AF8F68;}
	.st31{clip-path:url(#SVGID_6_);}
	.st32{fill:#CCAA72;}
	.st33{fill:#B7A077;}
	.st34{fill:#CC9C56;}
	.st35{fill:#845F2D;}
	.st36{opacity:0.38;clip-path:url(#SVGID_6_);fill:#231F20;}
	.st37{fill:none;stroke:#F2C88C;stroke-miterlimit:10;}
	.st38{fill:#F2C88C;}
	.st39{display:inline;fill:#C6A275;stroke:#F2C88C;stroke-width:2;stroke-miterlimit:10;}
	.st40{display:none;fill:none;stroke:#FFFFFF;stroke-width:0.5;stroke-miterlimit:10;}
	.st41{display:inline;fill:#FFFFFF;}
	.st42{font-size:14px;}
	.st43{font-size:10px;}
	.st44{fill:#FEFEFF;}
	.st45{fill:#4586A3;}
	.st46{clip-path:url(#SVGID_8_);}
	.st47{opacity:0.34;fill:#77B6E0;}
	.st48{fill:#57B285;}
	.st49{opacity:0.4;}
	.st50{fill:#231F20;}
	.st51{fill:none;stroke:#59ACC9;stroke-miterlimit:10;}
	.st52{fill:#59ACC9;}
	.st53{font-family:'GillSans-SemiBold';}
	.st54{fill:none;stroke:#939598;stroke-width:0.5;stroke-miterlimit:10;stroke-dasharray:2.0043,3.0065;}
	.st55{fill:#CC6C42;}
	.st56{clip-path:url(#SVGID_10_);fill:#EF7443;}
	.st57{clip-path:url(#SVGID_10_);}
	.st58{opacity:0.64;fill:#9E4C2C;}
	.st59{opacity:0.31;clip-path:url(#SVGID_10_);}
	.st60{fill:#EF7443;}
	.st61{fill:none;stroke:#FF9773;stroke-width:0.75;stroke-miterlimit:10;}
	.st62{fill:#FF9773;}
	.st63{display:inline;fill:#CC6C42;stroke:#FF9773;stroke-width:2;stroke-miterlimit:10;}
	.st64{fill:none;stroke:#939598;stroke-width:0.5;stroke-miterlimit:10;stroke-dasharray:2,3;}
	.st65{font-family:'GillSans-Bold';}
	.st66{font-size:72px;}
</style>
<g id="background">
	<rect y="0.2" transform="matrix(-1 -1.224647e-16 1.224647e-16 -1 504 1435.5807)" class="st0" width="504" height="1435.2"/>
</g>
<g id="stars">
	
		<image style="overflow:visible;opacity:0.75;" width="2161" height="5436" xlink:href="CF2F39764157B743.png"  transform="matrix(0.24 0 0 0.24 -10.32 122.4)">
	</image>
	<g>
		<g>
			<g>
				<g>
					<path class="st1" d="M87.3,300.3c1,0,1-1.5,0-1.5C86.4,298.8,86.4,300.3,87.3,300.3L87.3,300.3z"/>
				</g>
			</g>
			<g>
				<g>
					<path class="st1" d="M291.6,226.3c0.9,0,0.9-1.4,0-1.4C290.7,224.9,290.7,226.3,291.6,226.3L291.6,226.3z"/>
				</g>
			</g>
			<g>
				<g>
					<path class="st1" d="M440.4,187.6c2,0,2-3.1,0-3.1C438.5,184.6,438.5,187.6,440.4,187.6L440.4,187.6z"/>
				</g>
			</g>
			<g>
				<g>
					<path class="st1" d="M435.2,380c1.8,0,1.8-2.8,0-2.8C433.4,377.3,433.4,380,435.2,380L435.2,380z"/>
				</g>
			</g>
			<g>
				<g>
					<path class="st1" d="M161.5,458.4c0.8,0,0.8-1.2,0-1.2C160.7,457.2,160.7,458.4,161.5,458.4L161.5,458.4z"/>
				</g>
			</g>
			<g>
				<g>
					<path class="st1" d="M87.3,1033.3c1,0,1-1.5,0-1.5C86.4,1031.8,86.4,1033.3,87.3,1033.3L87.3,1033.3z"/>
				</g>
			</g>
			<g>
				<g>
					<path class="st1" d="M270.1,1036.7c1,0,1-1.5,0-1.5C269.1,1035.3,269.1,1036.7,270.1,1036.7L270.1,1036.7z"/>
				</g>
			</g>
			<g>
				<g>
					<path class="st1" d="M63.6,1216.9c1,0,1-1.5,0-1.5C62.7,1215.4,62.6,1216.9,63.6,1216.9L63.6,1216.9z"/>
				</g>
			</g>
			<g>
				<g>
					<path class="st1" d="M291.6,959.4c0.9,0,0.9-1.4,0-1.4C290.7,958,290.7,959.4,291.6,959.4L291.6,959.4z"/>
				</g>
			</g>
			<g>
				<g>
					<path class="st1" d="M368,871.7c2,0,2-3.1,0-3.1C366,868.6,366,871.7,368,871.7L368,871.7z"/>
				</g>
			</g>
			<g>
				<g>
					<path class="st1" d="M463.3,1050.1c2,0,2-3.1,0-3.1C461.4,1047,461.4,1050.1,463.3,1050.1L463.3,1050.1z"/>
				</g>
			</g>
			<g>
				<g>
					<path class="st1" d="M435.2,1113.1c1.8,0,1.8-2.8,0-2.8C433.4,1110.3,433.4,1113.1,435.2,1113.1L435.2,1113.1z"/>
				</g>
			</g>
			<g>
				<g>
					<path class="st1" d="M161.5,1191.4c0.8,0,0.8-1.2,0-1.2C160.7,1190.2,160.7,1191.4,161.5,1191.4L161.5,1191.4z"/>
				</g>
			</g>
			<g>
				<g>
					<path class="st1" d="M177.1,317.7c0.6,0,0.6-0.9,0-0.9C176.5,316.8,176.5,317.7,177.1,317.7L177.1,317.7z"/>
				</g>
			</g>
			<g>
				<g>
					<path class="st1" d="M86.5,561.1c0.3,0,0.3-0.5,0-0.5C86.2,560.6,86.2,561.1,86.5,561.1L86.5,561.1z"/>
				</g>
			</g>
			<g>
				<g>
					<path class="st1" d="M282.2,433.2c0.6,0,0.6-0.9,0-0.9C281.6,432.3,281.6,433.2,282.2,433.2L282.2,433.2z"/>
				</g>
			</g>
			<g>
				<g>
					<path class="st1" d="M393.6,417.4c0.3,0,0.3-0.5,0-0.5C393.3,416.9,393.3,417.4,393.6,417.4L393.6,417.4z"/>
				</g>
			</g>
			<g>
				<g>
					<path class="st1" d="M315.7,1171.3c2.3,0,2.3-3.6,0-3.6C313.4,1167.7,313.4,1171.3,315.7,1171.3L315.7,1171.3z"/>
				</g>
			</g>
			<g>
				<g>
					<polygon class="st1" points="292.6,568.1 292.6,568.1 292.6,568.1 					"/>
				</g>
			</g>
			<g>
				<g>
					<path class="st1" d="M290.5,709.7C290.6,709.7,290.6,709.6,290.5,709.7C290.5,709.6,290.5,709.7,290.5,709.7L290.5,709.7z"/>
				</g>
			</g>
			<g>
				<g>
					<path class="st1" d="M110.5,720.8c2.2,0,2.3-3.5,0-3.5C108.2,717.3,108.2,720.8,110.5,720.8L110.5,720.8z"/>
				</g>
			</g>
			<g>
				<g>
					<path class="st1" d="M283.4,561.5c1.3,0,1.3-2.1,0-2.1C282,559.4,282,561.5,283.4,561.5L283.4,561.5z"/>
				</g>
			</g>
			<g>
				<g>
					<path class="st1" d="M449.8,647.4c1.6,0,1.6-2.4,0-2.4C448.2,645,448.2,647.4,449.8,647.4L449.8,647.4z"/>
				</g>
			</g>
			<g>
				<g>
					<path class="st1" d="M485.2,765.2c1.8,0,1.8-2.9,0-2.9C483.4,762.4,483.4,765.2,485.2,765.2L485.2,765.2z"/>
				</g>
			</g>
			<g>
				<g>
					<path class="st1" d="M42.2,907.9c1.8,0,1.8-2.9,0-2.9C40.3,905,40.3,907.9,42.2,907.9L42.2,907.9z"/>
				</g>
			</g>
			<g>
				<g>
					<path class="st1" d="M219.8,761.7c1.4,0,1.4-2.1,0-2.1C218.4,759.6,218.4,761.7,219.8,761.7L219.8,761.7z"/>
				</g>
			</g>
			<g>
				<g>
					<path class="st1" d="M63.6,509.2c0.5,0,0.5-0.8,0-0.8C63.1,508.4,63.1,509.2,63.6,509.2L63.6,509.2z"/>
				</g>
			</g>
			<g>
				<g>
					<path class="st1" d="M344.7,363.1c1.4,0,1.4-2.2,0-2.2C343.3,360.9,343.3,363.1,344.7,363.1L344.7,363.1z"/>
				</g>
			</g>
			<g>
				<g>
					<path class="st1" d="M12.3,712.7c1.2,0,1.2-1.9,0-1.9C11,710.8,11,712.7,12.3,712.7L12.3,712.7z"/>
				</g>
			</g>
			<g>
				<g>
					<path class="st1" d="M90.7,756.6c0.1,0,0.1-0.1,0-0.1C90.6,756.5,90.6,756.6,90.7,756.6L90.7,756.6z"/>
				</g>
			</g>
			<g>
				<g>
					<path class="st1" d="M74,762.1c0.5,0,0.5-0.8,0-0.8C73.5,761.3,73.5,762.1,74,762.1L74,762.1z"/>
				</g>
			</g>
			<g>
				<g>
					<path class="st1" d="M74,621.4c2.2,0,2.3-3.5,0-3.5C71.8,617.9,71.8,621.4,74,621.4L74,621.4z"/>
				</g>
			</g>
			<g>
				<g>
					<path class="st1" d="M351.3,649.5c1.2,0,1.2-1.9,0-1.9C350,647.6,350,649.5,351.3,649.5L351.3,649.5z"/>
				</g>
			</g>
			<g>
				<g>
					<path class="st1" d="M360.3,726.9c0.1,0,0.1-0.1,0-0.1C360.2,726.8,360.2,726.9,360.3,726.9L360.3,726.9z"/>
				</g>
			</g>
			<g>
				<g>
					<path class="st1" d="M343.6,732.5c0.5,0,0.5-0.8,0-0.8C343.1,731.6,343.1,732.5,343.6,732.5L343.6,732.5z"/>
				</g>
			</g>
			<g>
				<g>
					<path class="st1" d="M452.2,844.3c0.5,0,0.5-0.8,0-0.8C451.7,843.4,451.7,844.3,452.2,844.3L452.2,844.3z"/>
				</g>
			</g>
			<g>
				<g>
					<path class="st1" d="M83.4,369c2.3,0,2.3-3.6,0-3.6C81.1,365.4,81,369,83.4,369L83.4,369z"/>
				</g>
			</g>
			<g>
				<g>
					<path class="st1" d="M439.8,632.7c1.8,0,1.8-2.8,0-2.8C438,629.9,438,632.7,439.8,632.7L439.8,632.7z"/>
				</g>
			</g>
			<g>
				<g>
					<path class="st1" d="M439.8,1365.7c1.8,0,1.8-2.8,0-2.8C438,1363,438,1365.7,439.8,1365.7L439.8,1365.7z"/>
				</g>
			</g>
			<g>
				<g>
					<path class="st1" d="M452.2,778.8c2.3,0,2.3-3.6,0-3.6C449.9,775.2,449.9,778.8,452.2,778.8L452.2,778.8z"/>
				</g>
			</g>
			<g>
				<g>
					<path class="st1" d="M280.1,1401.3c2.3,0,2.3-3.6,0-3.6C277.8,1397.7,277.8,1401.3,280.1,1401.3L280.1,1401.3z"/>
				</g>
			</g>
			<g>
				<g>
					<path class="st1" d="M130,1331.5c2.3,0,2.3-3.6,0-3.6C127.6,1327.8,127.6,1331.5,130,1331.5L130,1331.5z"/>
				</g>
			</g>
			<g>
				<g>
					<path class="st1" d="M362.4,400c2,0,2-3.1,0-3.1C360.3,396.9,360.3,400,362.4,400L362.4,400z"/>
				</g>
			</g>
			<g>
				<g>
					<path class="st1" d="M463.3,412c0.1,0,0.1-0.1,0-0.1C463.3,411.9,463.3,412,463.3,412L463.3,412z"/>
				</g>
			</g>
			<g>
				<g>
					<path class="st1" d="M131.3,516.5c1.9,0,1.9-2.9,0-2.9C129.4,513.6,129.4,516.5,131.3,516.5L131.3,516.5z"/>
				</g>
			</g>
			<g>
				<g>
					<path class="st1" d="M358.2,526.5c0.1,0,0.1-0.1,0-0.1C358.1,526.4,358.1,526.5,358.2,526.5L358.2,526.5z"/>
				</g>
			</g>
			<g>
				<g>
					<path class="st1" d="M425.9,492.5c0.5,0,0.5-0.7,0-0.7C425.4,491.8,425.4,492.5,425.9,492.5L425.9,492.5z"/>
				</g>
			</g>
			<g>
				<g>
					<path class="st1" d="M26.7,144.5c0.2,0,0.2-0.3,0-0.3C26.5,144.2,26.5,144.5,26.7,144.5L26.7,144.5z"/>
				</g>
			</g>
			<g>
				<g>
					<path class="st1" d="M187,169.4c1.3,0,1.3-2,0-2C185.7,167.3,185.7,169.4,187,169.4L187,169.4z"/>
				</g>
			</g>
			<g>
				<g>
					<path class="st1" d="M79.6,1399.6c0.1,0,0.1-0.1,0-0.1C79.5,1399.5,79.5,1399.6,79.6,1399.6L79.6,1399.6z"/>
				</g>
			</g>
			<g>
				<g>
					<path class="st1" d="M62.9,1405.1c0.5,0,0.5-0.8,0-0.8C62.4,1404.3,62.4,1405.1,62.9,1405.1L62.9,1405.1z"/>
				</g>
			</g>
			<g>
				<g>
					<path class="st1" d="M72.3,1012c2.3,0,2.3-3.6,0-3.6C69.9,1008.4,69.9,1012,72.3,1012L72.3,1012z"/>
				</g>
			</g>
			<g>
				<g>
					<path class="st1" d="M200.2,922.6c2,0,2-3.1,0-3.1C198.1,919.4,198.1,922.6,200.2,922.6L200.2,922.6z"/>
				</g>
			</g>
			<g>
				<g>
					<path class="st1" d="M452.2,1055c0.1,0,0.1-0.1,0-0.1C452.1,1054.9,452.1,1055,452.2,1055L452.2,1055z"/>
				</g>
			</g>
			<g>
				<g>
					<path class="st1" d="M123.3,1124.6c1.9,0,1.9-2.9,0-2.9C121.4,1121.7,121.4,1124.6,123.3,1124.6L123.3,1124.6z"/>
				</g>
			</g>
			<g>
				<g>
					<path class="st1" d="M347.1,1169.5c0.1,0,0.1-0.1,0-0.1C347,1169.4,347,1169.5,347.1,1169.5L347.1,1169.5z"/>
				</g>
			</g>
			<g>
				<g>
					<path class="st1" d="M414.7,1135.5c0.5,0,0.5-0.7,0-0.7C414.3,1134.8,414.3,1135.5,414.7,1135.5L414.7,1135.5z"/>
				</g>
			</g>
			<g>
				<g>
					<path class="st1" d="M15.6,787.5c0.2,0,0.2-0.3,0-0.3C15.4,787.2,15.4,787.5,15.6,787.5L15.6,787.5z"/>
				</g>
			</g>
			<g>
				<g>
					<path class="st1" d="M175.9,812.4c1.3,0,1.3-2,0-2C174.6,810.4,174.6,812.4,175.9,812.4L175.9,812.4z"/>
				</g>
			</g>
		</g>
	</g>
</g>
<g id="planets">
	
		<image style="display:none;overflow:visible;opacity:0.35;" width="794" height="1190" id="reference" xlink:href="CF2F39764157B74B.jpg"  transform="matrix(0.7708 0 0 0.7708 -1021.0887 -10.6217)">
	</image>
	<g>
		<defs>
			<rect id="SVGID_1_" y="0.2" transform="matrix(-1 -1.224647e-16 1.224647e-16 -1 504 1434.2919)" width="504" height="1433.9"/>
		</defs>
		<clipPath id="SVGID_2_">
			<use xlink:href="#SVGID_1_"  style="overflow:visible;"/>
		</clipPath>
		<g id="orbit_x5F_path" class="st2">
			<circle class="st3" cx="255.1" cy="-827.4" r="1081.4"/>
			<circle class="st4" cx="260.4" cy="-827.4" r="1328.6"/>
			<circle class="st5" cx="265.7" cy="-845.7" r="1649.9"/>
			<circle class="st6" cx="250.4" cy="-845.7" r="1957.1"/>
			<g>
				
					<image style="overflow:visible;opacity:0.75;" width="8640" height="8641" xlink:href="CF2F39764157B74F.png"  transform="matrix(0.24 0 0 0.24 -786.48 -1864.3199)">
				</image>
				<g>
					<circle class="st7" cx="250.4" cy="-827.4" r="950.3"/>
				</g>
			</g>
			<circle class="st8" cx="250.4" cy="-470.6" r="912"/>
		</g>
	</g>
	<g id="mercury_1_">
		<g id="mercury">
			<g>
				<path class="st9" d="M252,268.7c-8.1,0-14.7-6.6-14.7-14.7s6.6-14.7,14.7-14.7s14.7,6.6,14.7,14.7S260.1,268.7,252,268.7z"/>
				<g>
					<path class="st0" d="M252,240.2c7.6,0,13.7,6.1,13.7,13.7c0,7.6-6.1,13.7-13.7,13.7s-13.7-6.1-13.7-13.7
						C238.3,246.4,244.4,240.2,252,240.2 M252,238.2c-8.7,0-15.7,7.1-15.7,15.7c0,8.7,7.1,15.7,15.7,15.7s15.7-7.1,15.7-15.7
						C267.7,245.3,260.7,238.2,252,238.2L252,238.2z"/>
				</g>
			</g>
			<g>
				<g class="st10">
					<g class="st11">
						<path class="st9" d="M265.6,251.8c-0.4,0.9-1.3,0.5-2,1.5c-1.2,1.7-2.5-3.1-1.8-4.7c0.6-1.6-0.4-2.4-2.1-3.3
							c-1.7-1-3.5-0.6-3.6-1.5c-0.1-0.8,1.1-2.2,2.9-1.6c-2-1.2-4.4-1.9-7-1.9c-3,0-5.8,1-8.1,2.7c1.1-0.6,2.6,0.8,2.5,1.8
							c0,1-1.7,2.9-2.7,2.3c-0.9-0.5-2.6,1.3-3.9,0.6c-0.8,1.6-1.3,3.3-1.5,5.2c0.9-0.4,3-0.5,3.2,0.8c0.3,1.6-1.4,2.7-0.4,3.5
							c1,0.8,0.5,1.5,2.7,1.8c1.8,0.3,0.4,4.3-0.7,5.6c2.2,1.8,4.9,3,7.9,3.2c-0.9-0.2-1.6-0.5-2-1c-2.1-2.2,0.4-5.5,2.5-4.4
							c2.6,1.4,5.3-3.8,6.7-3c1,0.6,0.5,0.8,3.9-0.4c2.4-0.8,2.2,1.1,1,3.3c1.7-2.3,2.7-5.1,2.7-8.1
							C265.7,253.2,265.7,252.5,265.6,251.8z M255.4,256.9c-1.3,1-4.7-1.5-5.9,0.3c-1.1,1.7-5,0.2-5.9-1.2c-0.6-1,0.6-10,5.3-10.7
							c4.7-0.7,7.4,1.8,9.6,4.2C260.6,252,256.7,255.9,255.4,256.9z"/>
					</g>
				</g>
				<g>
					<defs>
						<circle id="SVGID_3_" cx="252" cy="254" r="13.7"/>
					</defs>
					<clipPath id="SVGID_4_">
						<use xlink:href="#SVGID_3_"  style="overflow:visible;"/>
					</clipPath>
					<g class="st12">
						<path class="st13" d="M255.7,238.7c-6.5,4.9,1.1,0.4,2.9,2.2c2.9,2.8-2.2,1.3-4,5.2c-0.7,1.6,2.2,6.3,10.6,4.8
							c1.5-0.3,4.3,0.1,4.9-1c-0.8-5.3-6.3-10.6-10.7-13.2C257,235.8,256.5,238.1,255.7,238.7z"/>
						<path class="st14" d="M236.9,244.6c-6,0.2-7.5,12.3-6.7,13.5c1.2,1.8,6.1,3.7,7.5,1.5c1.5-2.2,5.8,0.9,7.4-0.4
							c1.6-1.2,12.8-4.9,3.9-9.3C239.8,245.3,249.8,244.1,236.9,244.6z"/>
						<path class="st15" d="M246,244.5c-6,0.2-7.5,12.3-6.7,13.5c1.2,1.8,6.1,3.7,7.5,1.5c1.5-2.2,5.8,0.9,7.4-0.4
							c1.6-1.2,12.8-4.9,3.9-9.3C248.9,245.2,258.9,244,246,244.5z"/>
						<path class="st16" d="M270.9,256.5c-5.1,1.7-4.3,1.3-5.7,0.5c-2-1.1-5.9,6.5-9.7,4.4c-3.1-1.7-6.6,3.1-3.6,6.4
							c0.7,0.7,1.7,1.2,3,1.5c0.5,0,0.9,0.1,1.4,0.1c6.6,0,12.5-3.2,16.2-8.2C274.1,258,274.4,255.3,270.9,256.5z"/>
						<path class="st17" d="M246,245.1c1.6,1,5.9-2.7,13-0.4c7.1,2.3-10.8-7.9-12.8-6.8c-2.9,2.1-5.3,4.9-7,8.2
							C241.5,247.3,244.4,244.2,246,245.1z"/>
						<path class="st18" d="M256.2,261.5c2.5-5.2,10.1-5.1,10.2-8.9c0.1-3.9-10.5-8.7-8.4-1.3c4.1,6.4-32.3,12.1-22.9,13.3
							C245,265.8,254.5,265.2,256.2,261.5z"/>
						<path class="st18" d="M264.7,261.8c2.2,1.3,6.2-3.1,6.3-5.5c0.1-2.4-3.3-5.8-6-4.4c-4,2.9-4.8,15.9-7.1,20.4
							C261,274,262.6,260.5,264.7,261.8z"/>
						<path class="st19" d="M246.1,261.4c-3.1-0.4-2.5-1.3-3.7-2.5c-1.1-1.2,1.6-2.9,0.5-4.9c-0.8-1.6-3.2-1.7-4.5-1.1
							c0,0.6-0.1,1.1-0.1,1.7c0,3.3,0.8,6.5,2.3,9.2c1.4,0.5,2,2,2.4,3.4c0.6,0.7,1.4,1.4,2.1,2.1
							C246.7,267.5,248.6,261.7,246.1,261.4z"/>
					</g>
				</g>
				<g class="st10">
					<path class="st20" d="M250.1,248.6c-0.7-0.4-1.1,0.1-1.2,0.3c-0.3,0.4,0.4,0.6,1.2,0.3c0.6-0.3,0.8,0,1.2-0.3
						C251.4,248.8,250.6,249,250.1,248.6z"/>
					<path class="st20" d="M253.4,253c-0.6,0.5-1.4,0.2-1.4,0.4c0,0.2,0.6,0.4,1.4,0.4c0.8,0,1.8-0.3,1.4-0.4
						C254.6,253.3,254,252.5,253.4,253z"/>
					<path class="st20" d="M247.4,253.6c-0.7-0.1-1.3,0.2-1.3,0.5c0,0.3,0.7,0.1,1.3,0.5c0.6,0.5,0.5-0.2,0.5-0.5
						C247.9,253.8,248.2,253.7,247.4,253.6z"/>
					<path class="st20" d="M240.1,253.8c-0.4,0.1-0.9,0.2-0.7,0.3c0.2,0,0.3,0.1,0.7,0.3c0.4,0.1,0.5-0.1,0.7-0.3
						C240.9,254,240.5,253.7,240.1,253.8z"/>
					<path class="st20" d="M242.5,260.3c-0.4,0.2-0.8,0.2-0.8,0.4c0,0.2,0.4,0.7,0.8,0.4c0.4-0.3,1-0.2,0.8-0.4
						C243.1,260.6,242.8,260.1,242.5,260.3z"/>
					<path class="st20" d="M251.7,263.2c-0.4,0-1,0.3-0.8,0.3c0.2,0.1,0.5,0.6,0.8,0.3c0.3-0.3,0.8-0.1,0.8-0.3
						C252.5,263.3,252.2,263.2,251.7,263.2z"/>
					<path class="st20" d="M257.9,260.7c-0.4-0.1-0.8,0.1-0.8,0.3s0.5,0.7,0.8,0.3c0.3-0.3,0.8-0.1,0.8-0.3S258.3,260.9,257.9,260.7
						z"/>
					<path class="st20" d="M263.1,251.3c-0.4,0.2-0.8,0.2-0.8,0.3c0,0.2,0.4,0.3,0.8,0.3c0.5,0,0.6-0.2,0.8-0.3
						C264.1,251.6,263.5,251.1,263.1,251.3z"/>
					<path class="st20" d="M259.5,243.9c0.5,0,0.8-0.2,0.8-0.4c0-0.2-0.4-0.2-0.8-0.4c-0.4-0.2-1,0.2-0.8,0.4
						C258.9,243.7,259.1,243.9,259.5,243.9z"/>
					<path class="st20" d="M243.9,244.7c-0.2-0.3-0.8,0.2-0.8,0.4s0.4,0.4,0.8,0.4c0.4,0,0.9-0.2,0.8-0.4
						C244.6,244.9,244.2,245.1,243.9,244.7z"/>
					<path class="st20" d="M251.1,242.7c0.6,0,1.2-0.2,1.2-0.4c0-0.2-0.8-0.9-1.2-0.4c-0.3,0.4-0.8,0.3-1.2,0.4
						C249.7,242.4,250.4,242.7,251.1,242.7z"/>
					<path class="st20" d="M254.7,243.9c-0.4,0.3-0.9,0.2-0.9,0.4c0,0.2,0.4,0.4,0.9,0.4c0.5,0,1.1-0.2,0.9-0.4
						C255.4,244.2,255.1,243.6,254.7,243.9z"/>
					<path class="st20" d="M242.8,249.2c0.2,0-0.4-0.1-0.8-0.3c-0.3-0.2-0.9,0.2-0.8,0.3c0.1,0.1,0.4,0.1,0.8,0.3
						C242.5,249.7,242.5,249.3,242.8,249.2z"/>
					<path class="st20" d="M259.5,247.8c-0.6,0-1.3,0.3-1,0.4c0.2,0.1,0.6,0.7,1,0.4c0.5-0.3,1-0.2,1-0.4
						C260.6,248,260.1,247.8,259.5,247.8z"/>
				</g>
				<g class="st21">
					<path class="st22" d="M255,240.6c3.6,3.4,5.8,8.1,5.8,13.4c0,5.3-2.2,10-5.8,13.4c6.1-1.4,10.7-6.8,10.7-13.4
						C265.7,247.4,261.2,241.9,255,240.6z"/>
				</g>
			</g>
		</g>
		<g>
			<path class="st9" d="M236.4,239.4l0.5-0.6l4.3,3.4l-0.5,0.6l-3.3-2.6l0.6,2.6l-0.1,0.1l-2.7,0l3.3,2.6l-0.5,0.6l-4.3-3.4l0.5-0.6
				l2.9,0L236.4,239.4z"/>
			<path class="st9" d="M238.7,237.3l2.5-1.8l0.4,0.6l-1.9,1.3l1,1.4l1.8-1.3l0.4,0.6l-1.8,1.3l1,1.4l2-1.4l0.4,0.6l-2.6,1.8
				L238.7,237.3z"/>
			<path class="st9" d="M244.8,239.7l-1.9-5.1l1.3-0.5c0.5-0.2,1-0.2,1.4-0.1c0.4,0.1,0.7,0.4,0.8,0.9c0.1,0.3,0.1,0.6,0.1,0.9
				c-0.1,0.3-0.2,0.5-0.5,0.7c0.2,0,0.4,0.1,0.6,0.3s0.6,0.4,1,0.7c0.3,0.2,0.5,0.4,0.7,0.5l0.4,0.3l-0.9,0.3l-0.3-0.3
				c0,0,0,0-0.1,0l-0.2-0.1l-0.4-0.3l-0.4-0.3c-0.2-0.2-0.4-0.3-0.6-0.3c-0.2-0.1-0.3-0.1-0.4-0.1c-0.1,0-0.3,0-0.5,0.1l-0.2,0.1
				l0.8,2.2L244.8,239.7z M244.1,234.8l-0.2,0.1l0.6,1.6l0.3-0.1c0.4-0.1,0.6-0.3,0.7-0.4c0.1-0.1,0.2-0.2,0.2-0.4
				c0-0.2,0-0.3,0-0.5c-0.1-0.2-0.2-0.3-0.3-0.4s-0.3-0.1-0.5-0.1C244.8,234.6,244.5,234.7,244.1,234.8z"/>
			<path class="st9" d="M253.6,236.7l0,0.9c-0.6,0.3-1.2,0.5-2,0.6c-0.6,0-1.1-0.1-1.6-0.3c-0.4-0.2-0.8-0.5-1.1-1
				c-0.3-0.4-0.4-0.9-0.4-1.4c0-0.8,0.2-1.5,0.8-2c0.5-0.6,1.2-0.9,2.1-0.9c0.6,0,1.2,0.1,1.9,0.4l0,0.8c-0.7-0.3-1.3-0.5-1.9-0.5
				c-0.6,0-1.1,0.3-1.5,0.7c-0.4,0.4-0.6,0.9-0.5,1.5c0,0.6,0.3,1.1,0.7,1.4c0.4,0.4,1,0.5,1.6,0.5
				C252.4,237.4,253,237.2,253.6,236.7z"/>
			<path class="st9" d="M259.4,233.9l0.8,0.2l-0.9,3c-0.1,0.4-0.2,0.7-0.3,0.9s-0.2,0.3-0.4,0.5c-0.1,0.1-0.3,0.2-0.4,0.3
				c-0.5,0.2-1.1,0.3-1.8,0.1c-0.7-0.2-1.2-0.5-1.5-1c-0.1-0.1-0.2-0.3-0.2-0.5c0-0.2-0.1-0.3-0.1-0.6c0-0.2,0.1-0.5,0.2-1l0.8-3
				l0.8,0.2l-0.9,3c-0.1,0.5-0.2,0.9-0.1,1.1c0.1,0.2,0.2,0.4,0.4,0.6s0.5,0.3,0.8,0.4c0.4,0.1,0.8,0.1,1.2,0
				c0.2-0.1,0.3-0.2,0.4-0.4c0.1-0.2,0.2-0.4,0.3-0.8L259.4,233.9z"/>
			<path class="st9" d="M259.2,239.7l3-4.6l1.1,0.8c0.5,0.3,0.8,0.7,0.9,1.1c0.1,0.4,0.1,0.8-0.2,1.2c-0.2,0.3-0.4,0.5-0.7,0.6
				c-0.3,0.1-0.5,0.1-0.9,0.1c0.1,0.2,0.1,0.4,0.2,0.7c0,0.3,0,0.7,0,1.3c0,0.4,0,0.6,0,0.8l0,0.5l-0.8-0.5l0-0.4c0,0,0,0,0-0.1
				l0-0.3l0-0.5l0-0.5c0-0.3,0-0.5-0.1-0.7s-0.1-0.3-0.1-0.4c-0.1-0.1-0.2-0.2-0.4-0.4l-0.2-0.1l-1.3,2L259.2,239.7z M262.7,236.3
				l-0.2-0.1l-0.9,1.4l0.2,0.2c0.3,0.2,0.6,0.3,0.7,0.4s0.3,0,0.5-0.1c0.1-0.1,0.3-0.2,0.4-0.3c0.1-0.1,0.1-0.3,0.1-0.5
				c0-0.2-0.1-0.3-0.2-0.5C263.3,236.7,263,236.5,262.7,236.3z"/>
			<path class="st9" d="M268.6,240.4l0.6,0.7l-3.3,0.3l-2.1,2l-0.5-0.6l2.1-2l0.5-3.2l0.6,0.7l-0.4,2.4L268.6,240.4z"/>
		</g>
		<g id="bio" class="st10">
			<g class="st11">
				<g>
					<line class="st23" x1="252" y1="254.4" x2="252" y2="289"/>
					<g>
						<circle class="st24" cx="252" cy="254.5" r="2.8"/>
					</g>
				</g>
			</g>
			<g class="st11">
				<path class="st25" d="M382,439.4H121.7c-5,0-9-4-9-9v-141c0-5,4-9,9-9H382c5,0,9,4,9,9v141C391,435.4,387,439.4,382,439.4z"/>
				<g>
					<g>
						<rect x="129" y="362.4" class="st26" width="155.4" height="56.5"/>
						<text transform="matrix(1 0 0 1 129.0471 370.5792)" class="st1 st27 st28">• Radius: 2,439.7 km</text>
						<text transform="matrix(1 0 0 1 129.2873 384.9796)" class="st1 st27 st28">• Mass: 3.3010x1023 kg</text>
						<text transform="matrix(1 0 0 1 129.0471 399.3799)" class="st1 st27 st28">• Area: 7,4797x10</text>
						<text transform="matrix(0.583 0 0 0.583 216.5744 395.3839)" class="st1 st27 st28">7</text>
						<text transform="matrix(1 0 0 1 220.0725 399.3799)" class="st1 st27 st28"> km</text>
						<text transform="matrix(0.583 0 0 0.583 237.7795 395.3839)" class="st1 st27 st28">2</text>
						<text transform="matrix(1 0 0 1 129.0471 413.7794)" class="st1 st27 st28">• Temperature: -173/427</text>
						<text transform="matrix(0.583 0 0 0.583 249.0705 409.7833)" class="st1 st27 st28">o</text>
						<text transform="matrix(1 0 0 1 252.8625 413.7794)" class="st1 st27 st28">C </text>
					</g>
					<g>
						<rect x="130.8" y="300.9" class="st26" width="244.2" height="83.2"/>
						<text transform="matrix(1 0 0 1 130.7908 309.0728)"><tspan x="0" y="0" class="st1 st29 st28">The smallest planet in our solar system and </tspan><tspan x="0" y="14.4" class="st1 st29 st28">nearest to the Sun, Mercury is only slightly larger </tspan><tspan x="0" y="28.8" class="st1 st29 st28">than Earth&apos;s Moon. Its orbit around the Sun takes </tspan><tspan x="0" y="43.2" class="st1 st29 st28">only 87.97 days.</tspan></text>
					</g>
				</g>
			</g>
		</g>
	</g>
	<g id="venus_1_">
		<g id="venus">
			<g>
				<g>
					<g>
						<path class="st30" d="M252,528.2c-14.9,0-27-12.1-27-27s12.1-27,27-27s27,12.1,27,27S266.9,528.2,252,528.2z"/>
						<path class="st0" d="M252,474.6c14.7,0,26.5,11.9,26.5,26.5c0,14.7-11.9,26.5-26.5,26.5s-26.5-11.9-26.5-26.5
							C225.5,486.5,237.3,474.6,252,474.6 M252,473.6c-15.2,0-27.5,12.4-27.5,27.5s12.4,27.5,27.5,27.5s27.5-12.4,27.5-27.5
							S267.2,473.6,252,473.6L252,473.6z"/>
					</g>
				</g>
			</g>
			<g>
				<defs>
					<circle id="SVGID_5_" cx="252" cy="501.2" r="26.5"/>
				</defs>
				<clipPath id="SVGID_6_">
					<use xlink:href="#SVGID_5_"  style="overflow:visible;"/>
				</clipPath>
				<g class="st31">
					<path class="st32" d="M227.1,488c0,0,33,13,52.1,2.9c19.1-10.2,4.2,18,4.2,18s-24.7,17.6-60-0.9S227.1,488,227.1,488z"/>
					<path class="st33" d="M225,476.2c9.1,5.4,17.2,1,30.6,3.9c0,0-9-0.7-11.8,1.1S227.9,478.7,225,476.2z"/>
					<path class="st34" d="M216.6,482.5c12,5.7,57.6,9.5,76.3,0C276.6,475.7,247.6,492.4,216.6,482.5z"/>
					<path class="st33" d="M224.3,486c6.4,16.5,17.2,11.8,58.2,2.6C239.7,496,232.6,495.9,224.3,486z"/>
					<path class="st34" d="M216.4,506.3c20-6.2,38.8,22.7,61.1,12.6c0,0-9.1,6.2-18.6,5.5C249.3,523.7,235.4,503.2,216.4,506.3z"/>
					<path class="st34" d="M289,505.4c-10.4,4-30,9.7-54.9-3.5s-45.7,10.4-45.7,10.4s14.4-13.6,32.6-11.9
						c18.1,1.7,23.1,14.8,39.9,15.4C277.7,516.4,289,505.4,289,505.4z"/>
					<path class="st33" d="M275.8,517.9c-3.6,1.4-10.4,3.4-19.1-1.2c-8.7-4.6-15.9,3.6-15.9,3.6s5-4.7,11.3-4.1
						c6.3,0.6,8.1,5.2,13.9,5.4C271.9,521.7,275.8,517.9,275.8,517.9z"/>
					<path class="st35" d="M257.6,506.4c19-1.2,24-19.2,13.5-6.8c0,0,1.5-13.4,10.6-9.5C288.1,492.9,285.8,505.7,257.6,506.4z"/>
					<path class="st35" d="M227.7,511.2c4.8,10.5,16.1,9.4,6.7,6.1c0,0,12.8,2.3,11.7,8.5C245.4,530,234.2,527,227.7,511.2z"/>
					<path class="st35" d="M220.7,494.3c11.5,6.8,21.8,1.2,38.8,5c0,0-11.3-0.9-15,1.4S224.4,497.6,220.7,494.3z"/>
					<path class="st35" d="M239.4,473.5c9.1,5.4,17.2,1,30.6,3.9c0,0-9-0.7-11.8,1.1C255.4,480.2,242.3,476,239.4,473.5z"/>
				</g>
				<path class="st36" d="M249,462.8c10.4,9.6,17,23.3,17,38.6c0,15-6.3,28.6-16.5,38.1c16.9-4.5,29.4-19.9,29.4-38.3
					C278.9,482.7,266.2,467.1,249,462.8z"/>
			</g>
		</g>
		<g>
			<path class="st32" d="M235.8,466.1l1-0.6l0.9,9.1l-0.2,0.1l-7.2-5.7l1.1-0.6l5,4L235.8,466.1z"/>
			<path class="st32" d="M239,464.8l4.5-1.3l0.3,1l-3.4,1l0.7,2.4l3.3-1l0.3,1l-3.3,1l0.7,2.5l3.5-1l0.3,1l-4.7,1.4L239,464.8z"/>
			<path class="st32" d="M253.1,462.5l1.1,0l0.4,8.3l-1,0l-5.9-6.2l0.3,6.4l-1.1,0l-0.4-8.3l1,0l5.9,6.2L253.1,462.5z"/>
			<path class="st32" d="M263.5,464.3l1.2,0.3l-1.1,4.6c-0.2,0.6-0.3,1.1-0.5,1.4c-0.2,0.3-0.3,0.5-0.5,0.7
				c-0.2,0.2-0.4,0.3-0.6,0.4c-0.8,0.4-1.7,0.5-2.7,0.2c-1.1-0.3-1.8-0.7-2.3-1.4c-0.2-0.2-0.3-0.4-0.4-0.7s-0.1-0.5-0.1-0.9
				c0-0.3,0.1-0.8,0.2-1.5l1.1-4.6l1.2,0.3l-1.1,4.6c-0.2,0.8-0.2,1.3-0.1,1.7s0.3,0.6,0.6,0.9c0.3,0.3,0.7,0.5,1.2,0.6
				c0.7,0.2,1.3,0.1,1.8-0.1c0.3-0.1,0.5-0.3,0.7-0.6c0.2-0.2,0.3-0.7,0.5-1.3L263.5,464.3z"/>
			<path class="st32" d="M267.2,471l-0.6-0.9c-0.4-0.6-0.6-1.1-0.6-1.5c-0.1-0.4,0-0.8,0.2-1.2c0.3-0.6,0.7-1,1.3-1.1
				s1.2-0.1,1.9,0.2c0.6,0.3,1.1,0.8,1.5,1.4l-0.6,1.2c-0.3-0.8-0.7-1.3-1.4-1.6c-0.3-0.2-0.7-0.2-1-0.2s-0.5,0.2-0.6,0.5
				c-0.1,0.2-0.1,0.5-0.1,0.8c0.1,0.3,0.2,0.6,0.5,1l0.6,0.9c0.6,1,0.8,1.9,0.3,2.8c-0.3,0.6-0.7,1-1.3,1.2
				c-0.6,0.2-1.2,0.1-1.8-0.2c-0.7-0.4-1.3-0.9-1.7-1.7l0.7-1.4c0.2,1,0.7,1.7,1.5,2.1c0.3,0.2,0.7,0.2,1,0.1
				c0.3-0.1,0.5-0.3,0.7-0.5C267.7,472.4,267.6,471.8,267.2,471z"/>
		</g>
		<g id="bio_1_" class="st10">
			<g class="st11">
				<g>
					<line class="st37" x1="252" y1="503" x2="252" y2="551.2"/>
					<g>
						<circle class="st38" cx="252" cy="503.2" r="3.8"/>
					</g>
				</g>
			</g>
			<path class="st39" d="M382,712.9H121.7c-5,0-9-4-9-9V556c0-5,4-9,9-9H382c5,0,9,4,9,9v147.9C391,708.8,387,712.9,382,712.9z"/>
			<g class="st11">
				<g>
					<rect x="131.9" y="567.2" class="st26" width="242" height="84.1"/>
					<text transform="matrix(1 0 0 1 131.904 575.3963)"><tspan x="0" y="0" class="st1 st29 st28">Venus is the second planet from the Sun. As the </tspan><tspan x="0" y="14.4" class="st1 st29 st28">second-brightest natural object in the night sky </tspan><tspan x="0" y="28.8" class="st1 st29 st28">after the Moon, Venus can cast shadows and, </tspan><tspan x="0" y="43.2" class="st1 st29 st28">rarely, is visible to the naked eye in broad </tspan><tspan x="0" y="57.6" class="st1 st29 st28">daylight.</tspan></text>
				</g>
				<g>
					<rect x="129.8" y="634.6" class="st26" width="215.6" height="58.1"/>
					<text transform="matrix(1 0 0 1 129.7589 642.7676)" class="st1 st27 st28">• Radius: 6,051.8 km</text>
					<text transform="matrix(1 0 0 1 129.7589 657.168)" class="st1 st27 st28">• Mass: 4.6873x10</text>
					<text transform="matrix(0.583 0 0 0.583 217.4034 653.1719)" class="st1 st27 st28">24</text>
					<text transform="matrix(1 0 0 1 224.3995 657.168)" class="st1 st27 st28"> kg</text>
					<text transform="matrix(1 0 0 1 129.7589 671.5684)" class="st1 st27 st28">• Area: 4.6023x10</text>
					<text transform="matrix(0.583 0 0 0.583 217.2862 667.5723)" class="st1 st27 st28">8</text>
					<text transform="matrix(1 0 0 1 220.7843 671.5684)" class="st1 st27 st28"> km</text>
					<text transform="matrix(0.583 0 0 0.583 238.4913 667.5723)" class="st1 st27 st28">2</text>
					<text transform="matrix(1 0 0 1 129.7589 685.9678)" class="st1 st27 st28">• Temperature: 462</text>
					<text transform="matrix(0.583 0 0 0.583 224.6573 681.9717)" class="st1 st27 st28">o</text>
					<text transform="matrix(1 0 0 1 228.4493 685.9678)" class="st1 st27 st28">C max)</text>
				</g>
			</g>
		</g>
	</g>
	<g id="moon_1_">
		<polyline class="st40" points="205.7,804 167.4,870.2 42.2,870.2 		"/>
		<rect x="42.2" y="820.1" class="st26" width="139.1" height="47.4"/>
		<text transform="matrix(1 0 0 1 42.1611 829.6627)" class="st10"><tspan x="0" y="0" class="st41 st29 st42">MOON</tspan><tspan x="0" y="12" class="st41 st29 st43">• Distance to Earth: 384,400 km</tspan><tspan x="0" y="24" class="st41 st29 st43">• Mass:  7.342×10^22 kg</tspan><tspan x="0" y="36" class="st41 st29 st43">• Radius: 1,737.1 km</tspan></text>
		<g id="moon">
			<circle class="st44" cx="205.7" cy="804.2" r="6.1"/>
			<g>
				<path class="st0" d="M205.7,798.6c3.1,0,5.6,2.5,5.6,5.6c0,3.1-2.5,5.6-5.6,5.6c-3.1,0-5.6-2.5-5.6-5.6
					C200.2,801.1,202.7,798.6,205.7,798.6 M205.7,797.6c-3.6,0-6.6,3-6.6,6.6s3,6.6,6.6,6.6s6.6-3,6.6-6.6S209.4,797.6,205.7,797.6
					L205.7,797.6z"/>
			</g>
		</g>
	</g>
	<g id="phobos_1_">
		<polyline class="st40" points="220.8,1111.4 166.8,1178.3 52.2,1178.3 		"/>
		<rect x="52.2" y="1126.7" class="st26" width="120.4" height="51.5"/>
		<text transform="matrix(1 0 0 1 52.2114 1136.2834)" class="st10"><tspan x="0" y="0" class="st41 st29 st42">PHOBOS</tspan><tspan x="0" y="12" class="st41 st29 st43">• Distance to Mars: 6,000 km</tspan><tspan x="0" y="24" class="st41 st29 st43">• Mass: 1.0659×10^16 kg</tspan><tspan x="0" y="36" class="st41 st29 st43">• Radius: 11.267 km</tspan></text>
		<g id="phobos">
			<circle class="st44" cx="220.8" cy="1111.4" r="2.8"/>
			<g>
				<path class="st0" d="M220.8,1109.1c1.3,0,2.3,1,2.3,2.3c0,1.3-1,2.3-2.3,2.3s-2.3-1-2.3-2.3
					C218.4,1110.1,219.5,1109.1,220.8,1109.1 M220.8,1108.1c-1.8,0-3.3,1.5-3.3,3.3s1.5,3.3,3.3,3.3s3.3-1.5,3.3-3.3
					S222.6,1108.1,220.8,1108.1L220.8,1108.1z"/>
			</g>
		</g>
	</g>
	<g id="deimos">
		<polyline class="st40" points="448.2,1163.8 324.7,1163.8 287.7,1111.4 		"/>
		<rect x="324.9" y="1113.4" class="st26" width="123.3" height="48.4"/>
		<text transform="matrix(1 0 0 1 324.918 1122.9149)" class="st10"><tspan x="0" y="0" class="st41 st29 st42">DEIMOS</tspan><tspan x="0" y="12" class="st41 st29 st43">• Distance to Mars: 23,460 </tspan><tspan x="0" y="24" class="st41 st29 st43">km</tspan><tspan x="0" y="36" class="st41 st29 st43">• Mass: 1.4762×10^15 kg</tspan></text>
		<g id="demois">
			<circle class="st44" cx="287.8" cy="1111.4" r="1.9"/>
			<g>
				<path class="st0" d="M287.8,1109.8c0.9,0,1.6,0.7,1.6,1.6c0,0.9-0.7,1.6-1.6,1.6c-0.9,0-1.6-0.7-1.6-1.6
					C286.1,1110.5,286.9,1109.8,287.8,1109.8 M287.8,1109.3c-1.2,0-2.1,1-2.1,2.1c0,1.2,1,2.1,2.1,2.1c1.2,0,2.1-1,2.1-2.1
					C289.9,1110.2,289,1109.3,287.8,1109.3L287.8,1109.3z"/>
			</g>
		</g>
	</g>
	<g id="earth_1_">
		<g id="earth">
			<g>
				<path class="st45" d="M252,834.5c-16.3,0-29.5-13.2-29.5-29.5c0-16.3,13.2-29.5,29.5-29.5s29.5,13.2,29.5,29.5
					C281.5,821.2,268.3,834.5,252,834.5z"/>
				<g>
					<path class="st0" d="M252,776.5c15.7,0,28.5,12.8,28.5,28.5c0,15.7-12.8,28.5-28.5,28.5s-28.5-12.8-28.5-28.5
						C223.5,789.2,236.3,776.5,252,776.5 M252,774.5c-16.8,0-30.5,13.7-30.5,30.5c0,16.8,13.7,30.5,30.5,30.5s30.5-13.7,30.5-30.5
						C282.5,788.2,268.8,774.5,252,774.5L252,774.5z"/>
				</g>
			</g>
			<g>
				<defs>
					<circle id="SVGID_7_" cx="252" cy="805" r="28.5"/>
				</defs>
				<clipPath id="SVGID_8_">
					<use xlink:href="#SVGID_7_"  style="overflow:visible;"/>
				</clipPath>
				<g class="st46">
					<path class="st47" d="M278.7,835.8c0,9.1-7.6,15.4-13.6,15.4s-10.8-7.4-10.8-16.6s3.9-9.4,9.9-9.4S278.7,826.7,278.7,835.8z"/>
					<path class="st47" d="M283.7,798.2c0,9.1-7.7,16.7-13.7,16.7s-16.6-2.4-16.8-12.2c-0.3-10.1,12.4-6.9,22-21.1
						C279.7,774.9,283.7,789.1,283.7,798.2z"/>
					<path class="st47" d="M240.3,808.7c6.2,2.9,1.6,24.7-1.9,24.7c-3.5,0-15.8-18.9-15.8-24.2s5.4,2,8.8,2
						C234.9,811.3,235.5,806.5,240.3,808.7z"/>
					<path class="st47" d="M245.4,776.8c0,9.1-7.7,16.7-13.7,16.7s-17-6.6-17-15.8c0-9.1,10.1-11.5,16.1-11.5
						S245.4,767.7,245.4,776.8z"/>
					<path class="st48" d="M229.8,792c0.1,0.8-1.1,1.3-1.4,2.3c-0.3,1-2.6,1.8-0.6,2.5s1.1,1.7,0.6,3c-0.6,1.3-1.1,1.8,0,2.8
						c1.1,1-1.9,1.5-1.4,2.3s0.3,1,0,2c-0.3,1-1.7,1.3-0.5,2.6c1.2,1.3-4.8,0.3-2.9,1.1c1.9,0.8-4-5.5-3.5-8.1
						c0.6-2.6,1.7-1.9,1.9-5c0.2-3.1,1.6-5.1,1.6-5.1l1.4-2c0,0,2.7-1.8,3.9-0.9S229.8,792,229.8,792z"/>
					<path class="st48" d="M225.9,814.9c0.3,0.2,0.1,0.8,0.3,0.9c0.3,0.1,0.6,0.3,1,0.3c0.3,0,0.6,0.7,0.8,1s0.1,0.7,0.6,0.7
						c0.5,0,1-0.3,1.6-0.6c0.6-0.4,2.1-0.2,2.1-0.2l0.5,0.3c0,0,0.2,0.5,1.5-0.6c1.4-1.1,2.7-2.6,3.1-1.7s0,2,0.4,2.2
						c0.4,0.2,1.5,0.5,1.9,0.2c0.4-0.3,0.9-0.9,1.4-0.2c0.4,0.8,3.2,1.3,3.2,1.9c0,1.4-2.5,1.8-2.8,2.6c-0.3,0.8-1.2,0.8-0.9,1.7
						c0.3,0.9-0.2,0.8-0.3,1.7c-0.1,0.9-0.2,1,0.3,1.5c0.5,0.5-0.1,2.3,0.4,2.9s0.2,2.1,0.2,2.6c0,0.5-7.1-3.7-8-3.8
						c-0.9-0.1-3.1-2.6-2.9-3.7s0.5-2.8-0.9-3.4c-1.5-0.5-1.2-1.1-1.7-2.3c-0.5-1.2-1.2-1.9-2.1-1.8c-0.8,0.1-2-2.6-2-2.6
						L225.9,814.9z"/>
					<path class="st48" d="M259.3,797.3c0.4,0.3,0.1,1.4,0.5,1.6c0.4,0.2,1,0.6,1.5,0.6c0.5,0,0.9,1.3,1.2,1.9
						c0.3,0.6,0.2,1.3,0.9,1.3c0.8,0,1.5-0.5,2.5-1.2c1-0.7,3.3-0.4,3.3-0.4l0.8,0.5c0,0,0.3,0.9,2.4-1.1c2.1-2,4.2-4.9,4.9-3.3
						c0.7,1.6,0,3.8,0.6,4.2c0.6,0.4,2.3,1,3,0.4c0.7-0.6,1.4-1.7,2.1-0.3c0.7,1.4,5,2.4,5.1,3.7c0.1,2.6-4,3.5-4.4,4.9
						c-0.4,1.4-1.9,1.5-1.4,3.3c0.4,1.7-0.3,1.5-0.4,3.3c-0.1,1.7-0.3,1.9,0.5,2.9c0.8,0.9-0.1,4.4,0.7,5.5c0.8,1.1,0.3,3.9,0.3,4.9
						s-11.1-6.9-12.6-7.1c-1.4-0.2-4.9-4.9-4.5-6.9c0.4-2,0.8-5.3-1.4-6.3c-2.3-1-1.9-2-2.7-4.4c-0.8-2.3-1.9-3.7-3.2-3.5
						c-1.3,0.2-3.2-4.9-3.2-4.9L259.3,797.3z"/>
					<path class="st48" d="M234.1,779.8c0.6,0.7-0.9,3.6,1,4.1s3.8,1.2,3.7,2.1c-0.1,1,1.5,1.6,2,1.8c0.5,0.2,1-0.4,1.3,0
						c0.2,0.4,0,1.6,0,1.6s2.7,1,2.5,1.7c-0.2,0.6-0.7,2.7-1.3,2.8c-0.6,0.1-0.8,0.5-0.8,0.8s1.3-0.3,2-1c0.7-0.6,1.4-1.4,1.1-1.7
						c-0.3-0.3-0.5-0.1,0.6-0.8c1.1-0.7,1.3-1.5,1.3-1.5s-0.8-1-0.6-1.4c0.1-0.4,1.4-0.9,1.7-0.3c0.2,0.6,0.7,0.3,0.7,0.3l0.9-1.6
						c0,0,0.2-0.5,0.7-0.9s0-0.6-0.4-1c-0.4-0.3,0.4-0.4,0.6-0.5c0.2-0.1,0.7,0.3,0.7,0.3s1,0,1.5-0.3c0.5-0.3,0.6-1.4,0.6-1.4
						l1.1-0.8l0.8-1.2c0,0,0.1-0.3,0-1.2c-0.1-0.9,0.9-1.3,0.9-1.3v-1.1c0,0,0.3,1.7,0-1.6c-0.3-3.4-18.5,0.6-18.5,0.6L234.1,779.8z
						"/>
					<g class="st49">
						<path class="st50" d="M250.5,764.9c11.8,9.4,19.3,23.8,19.3,40.1c0,16.2-7.6,30.7-19.3,40.1c19.1-3.3,33.7-20,33.7-40.1
							C284.2,784.9,269.6,768.2,250.5,764.9z"/>
					</g>
				</g>
			</g>
		</g>
		<g>
			<path class="st45" d="M228.6,771.5l4.6-2.8l0.6,1l-3.4,2.1l1.5,2.5l3.3-2l0.6,1l-3.3,2l1.6,2.5l3.6-2.2l0.6,1l-4.7,2.9
				L228.6,771.5z"/>
			<path class="st45" d="M239.1,766.2l0.9-0.3l7,7.9l-1.3,0.4l-2.1-2.3l-3.9,1.2l-0.3,3.1l-1.3,0.4L239.1,766.2z M242.7,770.9
				l-2.5-2.8l-0.3,3.7L242.7,770.9z"/>
			<path class="st45" d="M247.5,773.9l-0.4-9.5l2.4-0.1c1,0,1.7,0.2,2.3,0.6c0.6,0.5,0.9,1.1,0.9,1.9c0,0.6-0.1,1-0.4,1.5
				s-0.6,0.7-1.2,1c0.3,0.2,0.6,0.4,0.9,0.8c0.3,0.3,0.7,0.9,1.3,1.8c0.4,0.5,0.6,0.9,0.9,1.2l0.5,0.7l-1.6,0.1l-0.4-0.6
				c0,0,0-0.1-0.1-0.1l-0.3-0.4l-0.5-0.7l-0.5-0.7c-0.3-0.4-0.6-0.7-0.8-0.9c-0.2-0.2-0.5-0.4-0.7-0.5s-0.5-0.1-1-0.1l-0.4,0
				l0.2,4.2L247.5,773.9z M249,765.4l-0.4,0l0.1,3l0.5,0c0.7,0,1.2-0.1,1.4-0.2c0.3-0.1,0.4-0.3,0.6-0.6c0.1-0.2,0.2-0.5,0.2-0.8
				c0-0.3-0.1-0.6-0.3-0.8c-0.2-0.2-0.4-0.4-0.7-0.5C250.1,765.4,249.6,765.4,249,765.4z"/>
			<path class="st45" d="M255,764.1l7.9,1.4l-0.2,1.2l-3.3-0.6l-1.4,8.2l-1.4-0.2l1.4-8.2l-3.2-0.6L255,764.1z"/>
			<path class="st45" d="M272.1,769.4l1.2,0.6l-4.1,8.6L268,778l1.8-3.7l-4.8-2.3l-1.8,3.7l-1.2-0.6l4.1-8.6l1.2,0.6l-1.8,3.7
				l4.8,2.3L272.1,769.4z"/>
		</g>
		<g id="bio_2_" class="st10">
			<g class="st11">
				<g>
					<line class="st51" x1="252" y1="804.4" x2="252" y2="886"/>
					<g>
						<circle class="st52" cx="252" cy="804.6" r="3.8"/>
					</g>
				</g>
			</g>
			<g class="st11">
				<path class="st45" d="M121.7,1047.3c-5.5,0-10-4.5-10-10V889.4c0-5.5,4.5-10,10-10H382c5.5,0,10,4.5,10,10v147.9
					c0,5.5-4.5,10-10,10H121.7z"/>
				<g>
					<path class="st52" d="M382,880.4c5,0,9,4,9,9v147.9c0,5-4,9-9,9H121.7c-5,0-9-4-9-9V889.4c0-5,4-9,9-9H382 M382,878.4H121.7
						c-6.1,0-11,4.9-11,11v147.9c0,6.1,4.9,11,11,11H382c6.1,0,11-4.9,11-11V889.4C393,883.4,388.1,878.4,382,878.4L382,878.4z"/>
				</g>
			</g>
			<g class="st11">
				<g>
					<rect x="131.1" y="895.9" class="st26" width="241.4" height="97.9"/>
					<text transform="matrix(1 0 0 1 131.1391 904.1266)"><tspan x="0" y="0" class="st1 st53 st28">Earth is the third planet from the Sun and the </tspan><tspan x="0" y="14.4" class="st1 st53 st28">only astronomical object known to harbor </tspan><tspan x="0" y="28.8" class="st1 st53 st28">life. According to radiometric dating and </tspan><tspan x="0" y="43.2" class="st1 st53 st28">other sources of evidence, Earth formed over </tspan><tspan x="0" y="57.6" class="st1 st53 st28">4.5 billion years ago.</tspan></text>
				</g>
				<g>
					<rect x="131.8" y="974.4" class="st26" width="183.4" height="56.4"/>
					<text transform="matrix(1 0 0 1 131.8272 982.5799)" class="st1 st27 st28">• Radius: 6,371.00 km</text>
					<text transform="matrix(1 0 0 1 131.8272 996.9803)" class="st1 st27 st28">• Mass: 5.9722x10</text>
					<text transform="matrix(0.583 0 0 0.583 219.4717 992.9842)" class="st1 st27 st28">24</text>
					<text transform="matrix(1 0 0 1 226.4678 996.9803)" class="st1 st27 st28"> kg</text>
					<text transform="matrix(1 0 0 1 131.8272 1011.3807)" class="st1 st27 st28">• Area: 5.1006x10</text>
					<text transform="matrix(0.583 0 0 0.583 219.3545 1007.3846)" class="st1 st27 st28">8</text>
					<text transform="matrix(1 0 0 1 222.8526 1011.3807)" class="st1 st27 st28"> km</text>
					<text transform="matrix(0.583 0 0 0.583 240.5596 1007.3846)" class="st1 st27 st28">2</text>
					<text transform="matrix(1 0 0 1 131.8272 1025.7802)" class="st1 st27 st28">• Temperature: -88/58</text>
					<text transform="matrix(0.583 0 0 0.583 239.8506 1021.784)" class="st1 st27 st28">o</text>
					<text transform="matrix(1 0 0 1 243.6426 1025.7802)" class="st1 st27 st28">C (min/max)</text>
				</g>
			</g>
		</g>
		<g>
			<circle class="st54" cx="252" cy="805" r="46.3"/>
		</g>
	</g>
	<g id="mars_1_">
		<g id="mars">
			<g>
				<path class="st55" d="M252,1127.7c-9,0-16.3-7.3-16.3-16.3s7.3-16.3,16.3-16.3s16.3,7.3,16.3,16.3S261,1127.7,252,1127.7z"/>
				<g>
					<path class="st0" d="M252,1096.1c8.5,0,15.3,6.9,15.3,15.3c0,8.5-6.9,15.3-15.3,15.3s-15.3-6.9-15.3-15.3
						C236.7,1102.9,243.5,1096.1,252,1096.1 M252,1094.1c-9.6,0-17.3,7.8-17.3,17.3c0,9.6,7.8,17.3,17.3,17.3s17.3-7.8,17.3-17.3
						C269.3,1101.8,261.6,1094.1,252,1094.1L252,1094.1z"/>
				</g>
			</g>
			<g>
				<defs>
					<circle id="SVGID_9_" cx="252" cy="1111.4" r="15.3"/>
				</defs>
				<clipPath id="SVGID_10_">
					<use xlink:href="#SVGID_9_"  style="overflow:visible;"/>
				</clipPath>
				<path class="st56" d="M269.4,1106.4c-2-0.6-4.7,1-5.2,0.4c-0.4-0.6-2.6-5.9-1.2-6.7s-2.8-5.6-6.1-6c-3.3-0.4-6.6,0.8-7.4,1.4
					c-0.8,0.6-1,2.5-2.1,2.9c-1.1,0.4-0.3-1.7-1.7-1.6c-1.4,0.1-4.8,1.7-6,2.8c-1.1,1.1,2.3-0.1,3.4,1.4c1,1.6,1.1,3.1-1.7,4.4
					c-2.8,1.4-3.3-1.5-4.8,0.3c-1.4,1.8,0,3,0,3s0,1.3,1.1,1.2c2.3-0.2,1.9,2.2-1.1,1.4c-3-0.8-2.7,0.9-2.7,0.9
					c0.2,3.3,6.1,3.8,7.5,5.7c1.3,1.9-0.2,4.8-1.1,5.6c-0.8,0.8,0.6,2.6,0.6,2.6s0.9-4.1,3.1-4.4s9.5,0.5,11.2,1.2
					c1.7,0.7-0.3,2.7-2.1,2.5c-1.9-0.2-4.6,1.4-7,1.2c-2.4-0.2-1.5,3.9,2.9,3.9c4.4,0,15.7-4.8,16.2-6.8c0.5-2-2.6-3.1-3.9-2.8
					c-1.3,0.3-2.6-0.9-2.7-1.9c-0.1-1,1.7,0,2.5-1s2.4-3.7,3.4-3.5c1,0.2,5.5,1.5,6.1,0.9C271.3,1114.9,271.3,1106.9,269.4,1106.4z
					 M265.2,1110.3c-0.1,0.5-1.3-0.6-0.9,1c0.4,1.5-3.9,4.9-3.8,3.1s-2.1-4.5-4-3.3c-1.9,1.1,0.2,5-0.9,6.6c-1.1,1.6-7.9,1.1-11,0.3
					s-5.8-2.5-6.1-4.2c-0.1-0.8,3.7-3.1,3.4-4.6c-0.3-1.5,0.8-2.5,1.8-3.1c0.9-0.6,1.3-2.2,1.1-3.5c-0.1-1.3,1-2.3,1.8-3.1
					c0.8-0.8,3.6-1.7,3.6-0.6c-0.1,1.1-2.8,2.4-3.9,2.5c-1.1,0.1-0.3,2.5,0.2,2.6c0.5,0.1,0.2,1.6,0.2,1.6s0.9-2.9,2.4-3.6
					c1.4-0.8,1-2.1,2.3-3.4c1.3-1.3,3-0.2,3.9,0.4c0.9,0.6,0,1.9,0,1.9c1.8-0.7,1.9-2.4,1.8-3.6c-0.1-1.2-3.7-2-1.1-2.1
					c2.5-0.1,3.5,1.3,5,2.7c1.6,1.4,0.7,5,0.3,5.8c-0.3,0.8,1.4,2.8,2.4,3.3C264.5,1107.6,265.3,1109.9,265.2,1110.3z"/>
				<g class="st57">
					<path class="st58" d="M251.6,1102.9c-1.2,1-1.4,2.3-0.5,2.6c0.9,0.3,2.7-1.6,2.3-2.2C253,1102.6,251.6,1102.9,251.6,1102.9z"/>
					<path class="st58" d="M260,1096.8c-1.5-2.3-3.6,1.7-2.5,2.2c1.2,0.5,3.8-1.4,4-0.3c0.2,1.2,3.2-0.5,2.9-1.6
						C264.1,1096,260.3,1097.2,260,1096.8z"/>
					<path class="st58" d="M266.5,1117.7c-1.5-2.3-3.6,1.7-2.5,2.2c1.2,0.5,3.8-1.4,4-0.3s3.2-0.5,2.9-1.6
						C270.7,1116.9,266.8,1118.2,266.5,1117.7z"/>
					<path class="st58" d="M259.1,1104.4c1.7-0.7,1.9,1.4,1.6,2.3c-0.3,0.9-1.7,0.4-1,1.8c0.7,1.4-3.3,1.2-2.9,0
						C257.1,1107.4,257.5,1105.1,259.1,1104.4z"/>
					<path class="st58" d="M244.6,1110.3c1.7-0.7,1.9,1.4,1.6,2.3c-0.3,0.9,0.2,0.9-1,1.8c-2.6,1.9-3.3,1.2-2.9,0
						C242.6,1113.3,243,1111,244.6,1110.3z"/>
					<path class="st58" d="M253.2,1114.6c0.5,0.8,1,0.7,0.8,1.2s0.1,0.4-0.5,0.9c-1.3,0.9-1.6,0.6-1.5,0
						C252.2,1116.1,252.4,1113.3,253.2,1114.6z"/>
					<path class="st58" d="M239.1,1099.9c1.7-0.7,1.9,1.4,1.6,2.3c-0.3,0.9,0.2,0.9-1,1.8c-2.6,1.9-3.3,1.2-2.9,0
						S237.5,1100.6,239.1,1099.9z"/>
					<path class="st58" d="M245.7,1124.2c1.7-0.7,1.9,1.4,1.6,2.3c-0.3,0.9,0.2,0.9-1,1.8c-2.6,1.9-3.3,1.2-2.9,0
						S244.1,1124.9,245.7,1124.2z"/>
				</g>
				<g class="st59">
					<path d="M252.1,1092.7c5.3,4.5,8.7,11.1,8.7,18.6c0,7.6-3.5,14.4-9,18.9c9.1-1.5,16-9.3,16-18.8
						C267.7,1102,261,1094.3,252.1,1092.7z"/>
				</g>
			</g>
		</g>
		<g>
			<path class="st60" d="M241.3,1088.4l0.8-0.5l3.6,6.2l-0.9,0.5l-2.8-4.8l-0.5,3.5l-0.2,0.1l-3.3-1.3l2.8,4.8l-0.9,0.5l-3.6-6.2
				l0.8-0.5l3.5,1.3L241.3,1088.4z"/>
			<path class="st60" d="M247.9,1086.4l0.7-0.1l4.2,6.7l-1,0.2l-1.3-2l-3,0.4l-0.6,2.2l-1,0.2L247.9,1086.4z M250,1090.3l-1.5-2.4
				l-0.7,2.7L250,1090.3z"/>
			<path class="st60" d="M253.1,1093.2l1.3-7l1.8,0.3c0.7,0.1,1.2,0.4,1.6,0.9c0.4,0.4,0.5,0.9,0.4,1.5c-0.1,0.4-0.2,0.7-0.5,1
				c-0.3,0.3-0.6,0.4-1,0.5c0.2,0.2,0.4,0.4,0.5,0.7c0.2,0.3,0.4,0.8,0.7,1.5c0.2,0.4,0.3,0.8,0.4,1l0.3,0.6l-1.2-0.2l-0.2-0.5
				c0,0,0-0.1,0-0.1l-0.1-0.3l-0.2-0.6l-0.2-0.6c-0.2-0.3-0.3-0.6-0.4-0.8c-0.1-0.2-0.3-0.4-0.4-0.5c-0.1-0.1-0.4-0.2-0.7-0.2
				l-0.3,0l-0.6,3.1L253.1,1093.2z M255.6,1087.3l-0.3-0.1l-0.4,2.2l0.4,0.1c0.5,0.1,0.9,0.1,1.1,0.1c0.2-0.1,0.4-0.2,0.5-0.3
				c0.1-0.2,0.2-0.3,0.3-0.6c0-0.2,0-0.4-0.1-0.6c-0.1-0.2-0.2-0.4-0.4-0.5S256.1,1087.4,255.6,1087.3z"/>
			<path class="st60" d="M261.7,1092.6l-0.5-0.8c-0.3-0.5-0.5-0.9-0.5-1.3c-0.1-0.4,0-0.7,0.2-1c0.3-0.5,0.6-0.8,1.1-1
				c0.5-0.1,1-0.1,1.6,0.2c0.5,0.3,0.9,0.7,1.2,1.2l-0.5,1c-0.2-0.7-0.6-1.1-1.2-1.4c-0.3-0.2-0.6-0.2-0.8-0.2
				c-0.3,0-0.4,0.2-0.6,0.4c-0.1,0.2-0.1,0.4-0.1,0.6c0.1,0.2,0.2,0.5,0.4,0.9l0.5,0.8c0.5,0.9,0.6,1.6,0.3,2.4
				c-0.3,0.5-0.6,0.8-1.1,1c-0.5,0.1-1,0.1-1.6-0.2c-0.6-0.3-1.1-0.8-1.4-1.5l0.6-1.2c0.2,0.9,0.6,1.5,1.2,1.8
				c0.3,0.1,0.6,0.2,0.8,0.1c0.3-0.1,0.5-0.2,0.6-0.5C262.1,1093.8,262,1093.3,261.7,1092.6z"/>
		</g>
		<g id="bio_3_" class="st10">
			<g class="st11">
				<g>
					<line class="st61" x1="251.8" y1="1112.1" x2="251.8" y2="1193.4"/>
					<g>
						<circle class="st62" cx="251.8" cy="1112.3" r="2.8"/>
					</g>
				</g>
			</g>
			<path class="st63" d="M382,1359H122c-5,0-9-4-9-9v-147.6c0-5,4-9,9-9h260c5,0,9,4,9,9V1350C391,1355,387,1359,382,1359z"/>
			<g class="st11">
				<g>
					<rect x="131.5" y="1221.1" class="st26" width="241.1" height="68.3"/>
					<text transform="matrix(1 0 0 1 131.4595 1229.2491)"><tspan x="0" y="0" class="st1 st29 st28">The fourth planet from the Sun, Mars is a dusty, </tspan><tspan x="0" y="14.4" class="st1 st29 st28">cold, desert world with a very thin atmosphere </tspan><tspan x="0" y="28.8" class="st1 st29 st28">and is often referred to as the &apos;Red Planet&apos;.</tspan></text>
				</g>
				<g>
					<rect x="133.7" y="1273.9" class="st26" width="155.2" height="57.5"/>
					<text transform="matrix(1 0 0 1 133.7337 1282.0729)" class="st1 st27 st28">• Radius: 3,389.5 km</text>
					<text transform="matrix(1 0 0 1 133.7337 1296.4733)" class="st1 st27 st28">• Mass: 6.4169x10</text>
					<text transform="matrix(0.583 0 0 0.583 221.3783 1292.4772)" class="st1 st27 st28">23</text>
					<text transform="matrix(1 0 0 1 228.3744 1296.4733)" class="st1 st27 st28"> kg</text>
					<text transform="matrix(1 0 0 1 133.7337 1310.8737)" class="st1 st27 st28">• Area: 1.4437x10</text>
					<text transform="matrix(0.583 0 0 0.583 221.2611 1306.8776)" class="st1 st27 st28">8</text>
					<text transform="matrix(1 0 0 1 224.7591 1310.8737)" class="st1 st27 st28"> km</text>
					<text transform="matrix(0.583 0 0 0.583 242.4662 1306.8776)" class="st1 st27 st28">2</text>
					<text transform="matrix(1 0 0 1 133.7337 1325.2731)" class="st1 st27 st28">• Temperature: -153/20</text>
					<text transform="matrix(0.583 0 0 0.583 247.7572 1321.277)" class="st1 st27 st28">o</text>
					<text transform="matrix(1 0 0 1 251.5492 1325.2731)" class="st1 st27 st28">C </text>
				</g>
			</g>
		</g>
		<circle id="path" class="st64" cx="252" cy="1111.4" r="35.7"/>
		<circle class="st64" cx="252" cy="1111.4" r="31.3"/>
	</g>
	<text transform="matrix(0.583 0 0 0.583 94.0056 48.2807)"><tspan x="0" y="0" class="st1 st65 st66">TERRESTRIAL</tspan><tspan x="87.5" y="61.7" class="st1 st65 st66">PLANETS</tspan></text>
</g>
</svg>
