<?xml version="1.0" encoding="utf-8"?>
<!-- Generator: Adobe Illustrator 21.1.0, SVG Export Plug-In . SVG Version: 6.00 Build 0)  -->
<svg version="1.1" id="Layer_1" xmlns="http://www.w3.org/2000/svg" xmlns:xlink="http://www.w3.org/1999/xlink" x="0px" y="0px"
	 viewBox="0 0 504 990.1" style="enable-background:new 0 0 504 990.1;" xml:space="preserve">
<style type="text/css">
	.st0{fill:#282828;}
	.st1{fill:#FFFFFF;}
	.st2{fill:none;}
	.st3{fill:#CCCEC4;}
	.st4{fill:#CC9C56;}
	.st5{fill:#4586A3;}
	.st6{fill:#EF7443;}
	.st7{fill:#FF9640;}
	.st8{display:none;}
	.st9{display:inline;}
	.st10{clip-path:url(#SVGID_2_);}
	.st11{opacity:0.24;fill:#606060;enable-background:new    ;}
	.st12{opacity:0.12;fill:#606060;enable-background:new    ;}
	.st13{opacity:7.000000e-02;fill:#606060;enable-background:new    ;}
	.st14{opacity:0.13;fill:#606060;enable-background:new    ;}
	.st15{opacity:0.3;fill:#606060;enable-background:new    ;}
	.st16{opacity:0.22;fill:#606060;enable-background:new    ;}
	.st17{opacity:0.15;fill:#606060;enable-background:new    ;}
	.st18{display:inline;opacity:0.3;fill:#7F7F7F;enable-background:new    ;}
	.st19{opacity:0.33;}
	.st20{fill:#1E1E1E;}
	.st21{fill:#AF8F68;}
	.st22{clip-path:url(#SVGID_4_);}
	.st23{fill:#CCAA72;}
	.st24{fill:#B7A077;}
	.st25{fill:#845F2D;}
	.st26{opacity:0.38;clip-path:url(#SVGID_6_);fill:#231F20;enable-background:new    ;}
	.st27{clip-path:url(#SVGID_8_);}
	.st28{opacity:0.34;fill:#77B6E0;enable-background:new    ;}
	.st29{fill:#57B285;}
	.st30{opacity:0.4;}
	.st31{fill:#231F20;}
	.st32{fill:#939598;}
	.st33{fill:#FEFEFF;}
	.st34{fill:#CC6C42;}
	.st35{clip-path:url(#SVGID_10_);fill:#EF7443;}
	.st36{clip-path:url(#SVGID_12_);}
	.st37{opacity:0.64;fill:#9E4C2C;enable-background:new    ;}
	.st38{opacity:0.31;clip-path:url(#SVGID_14_);}
	.st39{font-family:'GillSans-Bold';}
	.st40{font-size:41.976px;}
</style>
<g id="background">
	<rect y="0.2" class="st0" width="504" height="989.9"/>
</g>
<g id="stars">
	
		<image style="overflow:visible;opacity:0.75;enable-background:new    ;" width="2167" height="5442" xlink:href="CF2F39764157B748.png"  transform="matrix(0.2397 0 0 0.2397 -10.694 122.5488)">
	</image>
	<g>
		<g>
			<g>
				<g>
					<path class="st1" d="M87.3,300.3c1,0,1-1.5,0-1.5C86.4,298.8,86.4,300.3,87.3,300.3L87.3,300.3z"/>
				</g>
			</g>
			<g>
				<g>
					<path class="st1" d="M291.6,226.3c0.9,0,0.9-1.4,0-1.4C290.7,224.9,290.7,226.3,291.6,226.3L291.6,226.3z"/>
				</g>
			</g>
			<g>
				<g>
					<path class="st1" d="M440.4,187.6c2,0,2-3.1,0-3.1C438.5,184.6,438.5,187.6,440.4,187.6L440.4,187.6z"/>
				</g>
			</g>
			<g>
				<g>
					<path class="st1" d="M435.2,380c1.8,0,1.8-2.8,0-2.8C433.4,377.3,433.4,380,435.2,380L435.2,380z"/>
				</g>
			</g>
			<g>
				<g>
					<path class="st1" d="M161.5,458.4c0.8,0,0.8-1.2,0-1.2C160.7,457.2,160.7,458.4,161.5,458.4L161.5,458.4z"/>
				</g>
			</g>
			<g>
				<g>
					<path class="st1" d="M87.3,1033.3c1,0,1-1.5,0-1.5C86.4,1031.8,86.4,1033.3,87.3,1033.3L87.3,1033.3z"/>
				</g>
			</g>
			<g>
				<g>
					<path class="st1" d="M270.1,1036.7c1,0,1-1.5,0-1.5C269.1,1035.3,269.1,1036.7,270.1,1036.7L270.1,1036.7z"/>
				</g>
			</g>
			<g>
				<g>
					<path class="st1" d="M63.6,1216.9c1,0,1-1.5,0-1.5C62.7,1215.4,62.6,1216.9,63.6,1216.9L63.6,1216.9z"/>
				</g>
			</g>
			<g>
				<g>
					<path class="st1" d="M291.6,959.4c0.9,0,0.9-1.4,0-1.4S290.7,959.4,291.6,959.4L291.6,959.4z"/>
				</g>
			</g>
			<g>
				<g>
					<path class="st1" d="M368,871.7c2,0,2-3.1,0-3.1C366,868.6,366,871.7,368,871.7L368,871.7z"/>
				</g>
			</g>
			<g>
				<g>
					<path class="st1" d="M463.3,1050.1c2,0,2-3.1,0-3.1C461.4,1047,461.4,1050.1,463.3,1050.1L463.3,1050.1z"/>
				</g>
			</g>
			<g>
				<g>
					<path class="st1" d="M435.2,1113.1c1.8,0,1.8-2.8,0-2.8C433.4,1110.3,433.4,1113.1,435.2,1113.1L435.2,1113.1z"/>
				</g>
			</g>
			<g>
				<g>
					<path class="st1" d="M161.5,1191.4c0.8,0,0.8-1.2,0-1.2C160.7,1190.2,160.7,1191.4,161.5,1191.4L161.5,1191.4z"/>
				</g>
			</g>
			<g>
				<g>
					<path class="st1" d="M177.1,317.7c0.6,0,0.6-0.9,0-0.9C176.5,316.8,176.5,317.7,177.1,317.7L177.1,317.7z"/>
				</g>
			</g>
			<g>
				<g>
					<path class="st1" d="M86.5,561.1c0.3,0,0.3-0.5,0-0.5S86.2,561.1,86.5,561.1L86.5,561.1z"/>
				</g>
			</g>
			<g>
				<g>
					<path class="st1" d="M282.2,433.2c0.6,0,0.6-0.9,0-0.9C281.6,432.3,281.6,433.2,282.2,433.2L282.2,433.2z"/>
				</g>
			</g>
			<g>
				<g>
					<path class="st1" d="M393.6,417.4c0.3,0,0.3-0.5,0-0.5C393.3,416.9,393.3,417.4,393.6,417.4L393.6,417.4z"/>
				</g>
			</g>
			<g>
				<g>
					<path class="st1" d="M315.7,1171.3c2.3,0,2.3-3.6,0-3.6C313.4,1167.7,313.4,1171.3,315.7,1171.3L315.7,1171.3z"/>
				</g>
			</g>
			<g>
				<g>
					<path class="st1" d="M292.6,568.1L292.6,568.1L292.6,568.1z"/>
				</g>
			</g>
			<g>
				<g>
					<path class="st1" d="M290.5,709.7C290.6,709.7,290.6,709.6,290.5,709.7C290.5,709.6,290.5,709.7,290.5,709.7L290.5,709.7z"/>
				</g>
			</g>
			<g>
				<g>
					<path class="st1" d="M110.5,720.8c2.2,0,2.3-3.5,0-3.5S108.2,720.8,110.5,720.8L110.5,720.8z"/>
				</g>
			</g>
			<g>
				<g>
					<path class="st1" d="M283.4,561.5c1.3,0,1.3-2.1,0-2.1C282,559.4,282,561.5,283.4,561.5L283.4,561.5z"/>
				</g>
			</g>
			<g>
				<g>
					<path class="st1" d="M449.8,647.4c1.6,0,1.6-2.4,0-2.4C448.2,645,448.2,647.4,449.8,647.4L449.8,647.4z"/>
				</g>
			</g>
			<g>
				<g>
					<path class="st1" d="M485.2,765.2c1.8,0,1.8-2.9,0-2.9C483.4,762.4,483.4,765.2,485.2,765.2L485.2,765.2z"/>
				</g>
			</g>
			<g>
				<g>
					<path class="st1" d="M42.2,907.9c1.8,0,1.8-2.9,0-2.9C40.3,905,40.3,907.9,42.2,907.9L42.2,907.9z"/>
				</g>
			</g>
			<g>
				<g>
					<path class="st1" d="M219.8,761.7c1.4,0,1.4-2.1,0-2.1C218.4,759.6,218.4,761.7,219.8,761.7L219.8,761.7z"/>
				</g>
			</g>
			<g>
				<g>
					<path class="st1" d="M63.6,509.2c0.5,0,0.5-0.8,0-0.8C63.1,508.4,63.1,509.2,63.6,509.2L63.6,509.2z"/>
				</g>
			</g>
			<g>
				<g>
					<path class="st1" d="M344.7,363.1c1.4,0,1.4-2.2,0-2.2C343.3,360.9,343.3,363.1,344.7,363.1L344.7,363.1z"/>
				</g>
			</g>
			<g>
				<g>
					<path class="st1" d="M12.3,712.7c1.2,0,1.2-1.9,0-1.9C11,710.8,11,712.7,12.3,712.7L12.3,712.7z"/>
				</g>
			</g>
			<g>
				<g>
					<path class="st1" d="M90.7,756.6C90.8,756.6,90.8,756.5,90.7,756.6C90.6,756.5,90.6,756.6,90.7,756.6L90.7,756.6z"/>
				</g>
			</g>
			<g>
				<g>
					<path class="st1" d="M74,762.1c0.5,0,0.5-0.8,0-0.8S73.5,762.1,74,762.1L74,762.1z"/>
				</g>
			</g>
			<g>
				<g>
					<path class="st1" d="M74,621.4c2.2,0,2.3-3.5,0-3.5C71.8,617.9,71.8,621.4,74,621.4L74,621.4z"/>
				</g>
			</g>
			<g>
				<g>
					<path class="st1" d="M351.3,649.5c1.2,0,1.2-1.9,0-1.9C350,647.6,350,649.5,351.3,649.5L351.3,649.5z"/>
				</g>
			</g>
			<g>
				<g>
					<path class="st1" d="M360.3,726.9C360.4,726.9,360.4,726.8,360.3,726.9C360.2,726.8,360.2,726.9,360.3,726.9L360.3,726.9z"/>
				</g>
			</g>
			<g>
				<g>
					<path class="st1" d="M343.6,732.5c0.5,0,0.5-0.8,0-0.8C343.1,731.6,343.1,732.5,343.6,732.5L343.6,732.5z"/>
				</g>
			</g>
			<g>
				<g>
					<path class="st1" d="M452.2,844.3c0.5,0,0.5-0.8,0-0.8C451.7,843.4,451.7,844.3,452.2,844.3L452.2,844.3z"/>
				</g>
			</g>
			<g>
				<g>
					<path class="st1" d="M83.4,369c2.3,0,2.3-3.6,0-3.6S81,369,83.4,369L83.4,369z"/>
				</g>
			</g>
			<g>
				<g>
					<path class="st1" d="M439.8,632.7c1.8,0,1.8-2.8,0-2.8S438,632.7,439.8,632.7L439.8,632.7z"/>
				</g>
			</g>
			<g>
				<g>
					<path class="st1" d="M439.8,1365.7c1.8,0,1.8-2.8,0-2.8C438,1363,438,1365.7,439.8,1365.7L439.8,1365.7z"/>
				</g>
			</g>
			<g>
				<g>
					<path class="st1" d="M452.2,778.8c2.3,0,2.3-3.6,0-3.6C449.9,775.2,449.9,778.8,452.2,778.8L452.2,778.8z"/>
				</g>
			</g>
			<g>
				<g>
					<path class="st1" d="M280.1,1401.3c2.3,0,2.3-3.6,0-3.6C277.8,1397.7,277.8,1401.3,280.1,1401.3L280.1,1401.3z"/>
				</g>
			</g>
			<g>
				<g>
					<path class="st1" d="M130,1331.5c2.3,0,2.3-3.6,0-3.6C127.6,1327.8,127.6,1331.5,130,1331.5L130,1331.5z"/>
				</g>
			</g>
			<g>
				<g>
					<path class="st1" d="M362.4,400c2,0,2-3.1,0-3.1C360.3,396.9,360.3,400,362.4,400L362.4,400z"/>
				</g>
			</g>
			<g>
				<g>
					<path class="st1" d="M463.3,412c0.1,0,0.1-0.1,0-0.1V412L463.3,412z"/>
				</g>
			</g>
			<g>
				<g>
					<path class="st1" d="M131.3,516.5c1.9,0,1.9-2.9,0-2.9C129.4,513.6,129.4,516.5,131.3,516.5L131.3,516.5z"/>
				</g>
			</g>
			<g>
				<g>
					<path class="st1" d="M358.2,526.5C358.3,526.5,358.3,526.4,358.2,526.5C358.1,526.4,358.1,526.5,358.2,526.5L358.2,526.5z"/>
				</g>
			</g>
			<g>
				<g>
					<path class="st1" d="M425.9,492.5c0.5,0,0.5-0.7,0-0.7S425.4,492.5,425.9,492.5L425.9,492.5z"/>
				</g>
			</g>
			<g>
				<g>
					<path class="st1" d="M26.7,144.5c0.2,0,0.2-0.3,0-0.3S26.5,144.5,26.7,144.5L26.7,144.5z"/>
				</g>
			</g>
			<g>
				<g>
					<path class="st1" d="M187,169.4c1.3,0,1.3-2,0-2C185.7,167.3,185.7,169.4,187,169.4L187,169.4z"/>
				</g>
			</g>
			<g>
				<g>
					<path class="st1" d="M79.6,1399.6C79.7,1399.6,79.7,1399.5,79.6,1399.6C79.5,1399.5,79.5,1399.6,79.6,1399.6L79.6,1399.6z"/>
				</g>
			</g>
			<g>
				<g>
					<path class="st1" d="M62.9,1405.1c0.5,0,0.5-0.8,0-0.8C62.4,1404.3,62.4,1405.1,62.9,1405.1L62.9,1405.1z"/>
				</g>
			</g>
			<g>
				<g>
					<path class="st1" d="M72.3,1012c2.3,0,2.3-3.6,0-3.6C69.9,1008.4,69.9,1012,72.3,1012L72.3,1012z"/>
				</g>
			</g>
			<g>
				<g>
					<path class="st1" d="M200.2,922.6c2,0,2-3.1,0-3.1C198.1,919.4,198.1,922.6,200.2,922.6L200.2,922.6z"/>
				</g>
			</g>
			<g>
				<g>
					<path class="st1" d="M452.2,1055C452.3,1055,452.3,1054.9,452.2,1055C452.1,1054.9,452.1,1055,452.2,1055L452.2,1055z"/>
				</g>
			</g>
			<g>
				<g>
					<path class="st1" d="M123.3,1124.6c1.9,0,1.9-2.9,0-2.9S121.4,1124.6,123.3,1124.6L123.3,1124.6z"/>
				</g>
			</g>
			<g>
				<g>
					<path class="st1" d="M347.1,1169.5C347.2,1169.5,347.2,1169.4,347.1,1169.5C347,1169.4,347,1169.5,347.1,1169.5L347.1,1169.5z"
						/>
				</g>
			</g>
			<g>
				<g>
					<path class="st1" d="M414.7,1135.5c0.5,0,0.5-0.7,0-0.7C414.3,1134.8,414.3,1135.5,414.7,1135.5L414.7,1135.5z"/>
				</g>
			</g>
			<g>
				<g>
					<path class="st1" d="M15.6,787.5c0.2,0,0.2-0.3,0-0.3C15.4,787.2,15.4,787.5,15.6,787.5L15.6,787.5z"/>
				</g>
			</g>
			<g>
				<g>
					<path class="st1" d="M175.9,812.4c1.3,0,1.3-2,0-2C174.6,810.4,174.6,812.4,175.9,812.4L175.9,812.4z"/>
				</g>
			</g>
		</g>
	</g>
</g>
<g id="planets">
	<g>
		<rect y="0.2" class="st2" width="504" height="1433.9"/>
		<g id="orbit_x5F_path">
			<path id="path" class="st3" d="M255.1,254.2c73.4,0,146.7-7.4,218-22c10.3-2.1,20.7-4.4,30.9-6.8v-0.5c-10.3,2.4-20.7,4.7-31,6.9
				c-71.2,14.6-144.5,22-217.9,22s-146.7-7.4-217.9-22c-12.4-2.5-24.8-5.3-37.2-8.3v0.5c12.3,3,24.7,5.7,37.1,8.3
				C108.3,246.8,181.7,254.2,255.1,254.2z"/>
			<path id="path" class="st4" d="M255.1,425.3c73.4,0,146.7-7.4,218-22c10.3-2.1,20.7-4.4,30.9-6.8V396
				c-10.3,2.4-20.7,4.7-31,6.9c-71.2,14.6-144.5,22-217.9,22s-146.7-7.4-217.9-22c-12.4-2.5-24.8-5.3-37.2-8.3v0.5
				c12.3,3,24.7,5.7,37.1,8.3C108.3,417.9,181.7,425.3,255.1,425.3z"/>
			<g>
				<path id="path" class="st5" d="M255.1,632.4c73.4,0,146.7-7.4,218-22c10.3-2.1,20.7-4.4,30.9-6.8v-0.5
					c-10.3,2.4-20.7,4.7-31,6.9c-71.2,14.6-144.5,22-217.9,22s-146.7-7.4-217.9-22c-12.4-2.5-24.8-5.3-37.2-8.3v0.5
					c12.3,3,24.7,5.7,37.1,8.3C108.3,625,181.7,632.4,255.1,632.4z"/>
			</g>
			<path id="path" class="st6" d="M255.1,827.8c73.4,0,146.7-7.4,218-22c10.3-2.1,20.7-4.4,30.9-6.8v-0.5
				c-10.3,2.4-20.7,4.7-31,6.9c-71.2,14.6-144.5,22-217.9,22s-146.7-7.4-217.9-22C24.7,802.7,12.3,800,0,797v0.5
				c12.3,3,24.7,5.7,37.1,8.3C108.3,820.4,181.7,827.8,255.1,827.8z"/>
			<g id="sun">
				<path class="st7" d="M0,0v89.5c79.8,21.7,163.7,33.3,250.4,33.3c87.8,0,172.9-11.9,253.6-34.2V0H0z"/>
			</g>
		</g>
	</g>
	<a href="1" class='planet'>
		<g id="mercury_1_">
			<g id="mercury">
				<g>
					<path class="st3" d="M252,268.7c-8.1,0-14.7-6.6-14.7-14.7s6.6-14.7,14.7-14.7c8.1,0,14.7,6.6,14.7,14.7S260.1,268.7,252,268.7
						z"/>
					<g>
						<path class="st0" d="M252,240.2c7.6,0,13.7,6.1,13.7,13.7c0,7.6-6.1,13.7-13.7,13.7s-13.7-6.1-13.7-13.7
							C238.3,246.4,244.4,240.2,252,240.2 M252,238.2c-8.7,0-15.7,7.1-15.7,15.7c0,8.7,7.1,15.7,15.7,15.7c8.6,0,15.7-7.1,15.7-15.7
							C267.7,245.3,260.7,238.2,252,238.2L252,238.2z"/>
					</g>
				</g>
				<g>
					<g class="st8">
						<g class="st9">
							<path class="st3" d="M265.6,251.8c-0.4,0.9-1.3,0.5-2,1.5c-1.2,1.7-2.5-3.1-1.8-4.7c0.6-1.6-0.4-2.4-2.1-3.3
								c-1.7-1-3.5-0.6-3.6-1.5c-0.1-0.8,1.1-2.2,2.9-1.6c-2-1.2-4.4-1.9-7-1.9c-3,0-5.8,1-8.1,2.7c1.1-0.6,2.6,0.8,2.5,1.8
								c0,1-1.7,2.9-2.7,2.3c-0.9-0.5-2.6,1.3-3.9,0.6c-0.8,1.6-1.3,3.3-1.5,5.2c0.9-0.4,3-0.5,3.2,0.8c0.3,1.6-1.4,2.7-0.4,3.5
								s0.5,1.5,2.7,1.8c1.8,0.3,0.4,4.3-0.7,5.6c2.2,1.8,4.9,3,7.9,3.2c-0.9-0.2-1.6-0.5-2-1c-2.1-2.2,0.4-5.5,2.5-4.4
								c2.6,1.4,5.3-3.8,6.7-3c1,0.6,0.5,0.8,3.9-0.4c2.4-0.8,2.2,1.1,1,3.3c1.7-2.3,2.7-5.1,2.7-8.1
								C265.7,253.2,265.7,252.5,265.6,251.8z M255.4,256.9c-1.3,1-4.7-1.5-5.9,0.3c-1.1,1.7-5,0.2-5.9-1.2c-0.6-1,0.6-10,5.3-10.7
								s7.4,1.8,9.6,4.2C260.6,252,256.7,255.9,255.4,256.9z"/>
						</g>
					</g>
					<g>
						<g>
							<defs>
								<circle id="SVGID_1_" cx="252" cy="254" r="13.7"/>
							</defs>
							<clipPath id="SVGID_2_">
								<use xlink:href="#SVGID_1_"  style="overflow:visible;"/>
							</clipPath>
							<g class="st10">
								<path class="st11" d="M255.7,238.7c-6.5,4.9,1.1,0.4,2.9,2.2c2.9,2.8-2.2,1.3-4,5.2c-0.7,1.6,2.2,6.3,10.6,4.8
									c1.5-0.3,4.3,0.1,4.9-1c-0.8-5.3-6.3-10.6-10.7-13.2C257,235.8,256.5,238.1,255.7,238.7z"/>
								<path class="st12" d="M236.9,244.6c-6,0.2-7.5,12.3-6.7,13.5c1.2,1.8,6.1,3.7,7.5,1.5c1.5-2.2,5.8,0.9,7.4-0.4
									c1.6-1.2,12.8-4.9,3.9-9.3C239.8,245.3,249.8,244.1,236.9,244.6z"/>
								<path class="st13" d="M246,244.5c-6,0.2-7.5,12.3-6.7,13.5c1.2,1.8,6.1,3.7,7.5,1.5c1.5-2.2,5.8,0.9,7.4-0.4
									c1.6-1.2,12.8-4.9,3.9-9.3C248.9,245.2,258.9,244,246,244.5z"/>
								<path class="st14" d="M270.9,256.5c-5.1,1.7-4.3,1.3-5.7,0.5c-2-1.1-5.9,6.5-9.7,4.4c-3.1-1.7-6.6,3.1-3.6,6.4
									c0.7,0.7,1.7,1.2,3,1.5c0.5,0,0.9,0.1,1.4,0.1c6.6,0,12.5-3.2,16.2-8.2C274.1,258,274.4,255.3,270.9,256.5z"/>
								<path class="st15" d="M246,245.1c1.6,1,5.9-2.7,13-0.4s-10.8-7.9-12.8-6.8c-2.9,2.1-5.3,4.9-7,8.2
									C241.5,247.3,244.4,244.2,246,245.1z"/>
								<path class="st16" d="M256.2,261.5c2.5-5.2,10.1-5.1,10.2-8.9c0.1-3.9-10.5-8.7-8.4-1.3c4.1,6.4-32.3,12.1-22.9,13.3
									C245,265.8,254.5,265.2,256.2,261.5z"/>
								<path class="st16" d="M264.7,261.8c2.2,1.3,6.2-3.1,6.3-5.5c0.1-2.4-3.3-5.8-6-4.4c-4,2.9-4.8,15.9-7.1,20.4
									C261,274,262.6,260.5,264.7,261.8z"/>
								<path class="st17" d="M246.1,261.4c-3.1-0.4-2.5-1.3-3.7-2.5c-1.1-1.2,1.6-2.9,0.5-4.9c-0.8-1.6-3.2-1.7-4.5-1.1
									c0,0.6-0.1,1.1-0.1,1.7c0,3.3,0.8,6.5,2.3,9.2c1.4,0.5,2,2,2.4,3.4c0.6,0.7,1.4,1.4,2.1,2.1
									C246.7,267.5,248.6,261.7,246.1,261.4z"/>
							</g>
						</g>
					</g>
					<g class="st8">
						<path class="st18" d="M250.1,248.6c-0.7-0.4-1.1,0.1-1.2,0.3c-0.3,0.4,0.4,0.6,1.2,0.3c0.6-0.3,0.8,0,1.2-0.3
							C251.4,248.8,250.6,249,250.1,248.6z"/>
						<path class="st18" d="M253.4,253c-0.6,0.5-1.4,0.2-1.4,0.4s0.6,0.4,1.4,0.4c0.8,0,1.8-0.3,1.4-0.4
							C254.6,253.3,254,252.5,253.4,253z"/>
						<path class="st18" d="M247.4,253.6c-0.7-0.1-1.3,0.2-1.3,0.5s0.7,0.1,1.3,0.5c0.6,0.5,0.5-0.2,0.5-0.5
							S248.2,253.7,247.4,253.6z"/>
						<path class="st18" d="M240.1,253.8c-0.4,0.1-0.9,0.2-0.7,0.3c0.2,0,0.3,0.1,0.7,0.3c0.4,0.1,0.5-0.1,0.7-0.3
							C240.9,254,240.5,253.7,240.1,253.8z"/>
						<path class="st18" d="M242.5,260.3c-0.4,0.2-0.8,0.2-0.8,0.4c0,0.2,0.4,0.7,0.8,0.4c0.4-0.3,1-0.2,0.8-0.4
							C243.1,260.6,242.8,260.1,242.5,260.3z"/>
						<path class="st18" d="M251.7,263.2c-0.4,0-1,0.3-0.8,0.3c0.2,0.1,0.5,0.6,0.8,0.3c0.3-0.3,0.8-0.1,0.8-0.3
							C252.5,263.3,252.2,263.2,251.7,263.2z"/>
						<path class="st18" d="M257.9,260.7c-0.4-0.1-0.8,0.1-0.8,0.3s0.5,0.7,0.8,0.3c0.3-0.3,0.8-0.1,0.8-0.3
							S258.3,260.9,257.9,260.7z"/>
						<path class="st18" d="M263.1,251.3c-0.4,0.2-0.8,0.2-0.8,0.3c0,0.2,0.4,0.3,0.8,0.3c0.5,0,0.6-0.2,0.8-0.3
							C264.1,251.6,263.5,251.1,263.1,251.3z"/>
						<path class="st18" d="M259.5,243.9c0.5,0,0.8-0.2,0.8-0.4s-0.4-0.2-0.8-0.4s-1,0.2-0.8,0.4
							C258.9,243.7,259.1,243.9,259.5,243.9z"/>
						<path class="st18" d="M243.9,244.7c-0.2-0.3-0.8,0.2-0.8,0.4s0.4,0.4,0.8,0.4c0.4,0,0.9-0.2,0.8-0.4S244.2,245.1,243.9,244.7z
							"/>
						<path class="st18" d="M251.1,242.7c0.6,0,1.2-0.2,1.2-0.4s-0.8-0.9-1.2-0.4c-0.3,0.4-0.8,0.3-1.2,0.4
							C249.7,242.4,250.4,242.7,251.1,242.7z"/>
						<path class="st18" d="M254.7,243.9c-0.4,0.3-0.9,0.2-0.9,0.4s0.4,0.4,0.9,0.4s1.1-0.2,0.9-0.4
							C255.4,244.2,255.1,243.6,254.7,243.9z"/>
						<path class="st18" d="M242.8,249.2c0.2,0-0.4-0.1-0.8-0.3c-0.3-0.2-0.9,0.2-0.8,0.3c0.1,0.1,0.4,0.1,0.8,0.3
							C242.5,249.7,242.5,249.3,242.8,249.2z"/>
						<path class="st18" d="M259.5,247.8c-0.6,0-1.3,0.3-1,0.4c0.2,0.1,0.6,0.7,1,0.4c0.5-0.3,1-0.2,1-0.4
							C260.6,248,260.1,247.8,259.5,247.8z"/>
					</g>
					<g class="st19">
						<path class="st20" d="M255,240.6c3.6,3.4,5.8,8.1,5.8,13.4s-2.2,10-5.8,13.4c6.1-1.4,10.7-6.8,10.7-13.4
							C265.7,247.4,261.2,241.9,255,240.6z"/>
					</g>
				</g>
			</g>
			<g>
				<path class="st3" d="M236.4,239.4l0.5-0.6l4.3,3.4l-0.5,0.6l-3.3-2.6l0.6,2.6l-0.1,0.1h-2.7l3.3,2.6l-0.5,0.6l-4.3-3.4l0.5-0.6
					h2.9L236.4,239.4z"/>
				<path class="st3" d="M238.7,237.3l2.5-1.8l0.4,0.6l-1.9,1.3l1,1.4l1.8-1.3l0.4,0.6l-1.8,1.3l1,1.4l2-1.4l0.4,0.6l-2.6,1.8
					L238.7,237.3z"/>
				<path class="st3" d="M244.8,239.7l-1.9-5.1l1.3-0.5c0.5-0.2,1-0.2,1.4-0.1c0.4,0.1,0.7,0.4,0.8,0.9c0.1,0.3,0.1,0.6,0.1,0.9
					c-0.1,0.3-0.2,0.5-0.5,0.7c0.2,0,0.4,0.1,0.6,0.3s0.6,0.4,1,0.7c0.3,0.2,0.5,0.4,0.7,0.5l0.4,0.3l-0.9,0.3l-0.3-0.3
					c0,0,0,0-0.1,0l-0.2-0.1l-0.4-0.3l-0.4-0.3c-0.2-0.2-0.4-0.3-0.6-0.3c-0.2-0.1-0.3-0.1-0.4-0.1c-0.1,0-0.3,0-0.5,0.1l-0.2,0.1
					l0.8,2.2L244.8,239.7z M244.1,234.8l-0.2,0.1l0.6,1.6l0.3-0.1c0.4-0.1,0.6-0.3,0.7-0.4c0.1-0.1,0.2-0.2,0.2-0.4s0-0.3,0-0.5
					c-0.1-0.2-0.2-0.3-0.3-0.4s-0.3-0.1-0.5-0.1C244.8,234.6,244.5,234.7,244.1,234.8z"/>
				<path class="st3" d="M253.6,236.7v0.9c-0.6,0.3-1.2,0.5-2,0.6c-0.6,0-1.1-0.1-1.6-0.3c-0.4-0.2-0.8-0.5-1.1-1
					c-0.3-0.4-0.4-0.9-0.4-1.4c0-0.8,0.2-1.5,0.8-2c0.5-0.6,1.2-0.9,2.1-0.9c0.6,0,1.2,0.1,1.9,0.4v0.8c-0.7-0.3-1.3-0.5-1.9-0.5
					c-0.6,0-1.1,0.3-1.5,0.7s-0.6,0.9-0.5,1.5c0,0.6,0.3,1.1,0.7,1.4c0.4,0.4,1,0.5,1.6,0.5C252.4,237.4,253,237.2,253.6,236.7z"/>
				<path class="st3" d="M259.4,233.9l0.8,0.2l-0.9,3c-0.1,0.4-0.2,0.7-0.3,0.9s-0.2,0.3-0.4,0.5c-0.1,0.1-0.3,0.2-0.4,0.3
					c-0.5,0.2-1.1,0.3-1.8,0.1c-0.7-0.2-1.2-0.5-1.5-1c-0.1-0.1-0.2-0.3-0.2-0.5s-0.1-0.3-0.1-0.6c0-0.2,0.1-0.5,0.2-1l0.8-3
					l0.8,0.2l-0.9,3c-0.1,0.5-0.2,0.9-0.1,1.1c0.1,0.2,0.2,0.4,0.4,0.6c0.2,0.2,0.5,0.3,0.8,0.4c0.4,0.1,0.8,0.1,1.2,0
					c0.2-0.1,0.3-0.2,0.4-0.4s0.2-0.4,0.3-0.8L259.4,233.9z"/>
				<path class="st3" d="M259.2,239.7l3-4.6l1.1,0.8c0.5,0.3,0.8,0.7,0.9,1.1c0.1,0.4,0.1,0.8-0.2,1.2c-0.2,0.3-0.4,0.5-0.7,0.6
					c-0.3,0.1-0.5,0.1-0.9,0.1c0.1,0.2,0.1,0.4,0.2,0.7c0,0.3,0,0.7,0,1.3c0,0.4,0,0.6,0,0.8v0.5l-0.8-0.5v-0.4c0,0,0,0,0-0.1v-0.3
					v-0.5v-0.5c0-0.3,0-0.5-0.1-0.7s-0.1-0.3-0.1-0.4c-0.1-0.1-0.2-0.2-0.4-0.4l-0.2-0.1l-1.3,2L259.2,239.7z M262.7,236.3l-0.2-0.1
					l-0.9,1.4l0.2,0.2c0.3,0.2,0.6,0.3,0.7,0.4s0.3,0,0.5-0.1c0.1-0.1,0.3-0.2,0.4-0.3s0.1-0.3,0.1-0.5s-0.1-0.3-0.2-0.5
					C263.3,236.7,263,236.5,262.7,236.3z"/>
				<path class="st3" d="M268.6,240.4l0.6,0.7l-3.3,0.3l-2.1,2l-0.5-0.6l2.1-2l0.5-3.2l0.6,0.7l-0.4,2.4L268.6,240.4z"/>
			</g>
		</g>
	</a>
	<a href="2" class="planet">
		<g id="venus_1_">
			<g id="venus">
				<g>
					<g>
						<g>
							<path class="st21" d="M252,450.3c-14.9,0-27-12.1-27-27s12.1-27,27-27s27,12.1,27,27S266.9,450.3,252,450.3z"/>
							<path class="st0" d="M252,396.7c14.7,0,26.5,11.9,26.5,26.5c0,14.7-11.9,26.5-26.5,26.5s-26.5-11.9-26.5-26.5
								S237.3,396.7,252,396.7 M252,395.7c-15.2,0-27.5,12.4-27.5,27.5s12.4,27.5,27.5,27.5s27.5-12.4,27.5-27.5
								S267.2,395.7,252,395.7L252,395.7z"/>
						</g>
					</g>
				</g>
				<g>
					<g>
						<defs>
							<circle id="SVGID_3_" cx="252" cy="423.3" r="26.5"/>
						</defs>
						<clipPath id="SVGID_4_">
							<use xlink:href="#SVGID_3_"  style="overflow:visible;"/>
						</clipPath>
						<g class="st22">
							<path class="st23" d="M227.1,410.1c0,0,33,13,52.1,2.9s4.2,18,4.2,18s-24.7,17.6-60-0.9S227.1,410.1,227.1,410.1z"/>
							<path class="st24" d="M225,398.2c9.1,5.4,17.2,1,30.6,3.9c0,0-9-0.7-11.8,1.1C240.9,405,227.9,400.8,225,398.2z"/>
							<path class="st4" d="M216.6,404.6c12,5.7,57.6,9.5,76.3,0C276.6,397.8,247.6,414.5,216.6,404.6z"/>
							<path class="st24" d="M224.3,408.1c6.4,16.5,17.2,11.8,58.2,2.6C239.7,418.1,232.6,418,224.3,408.1z"/>
							<path class="st4" d="M216.4,428.4c20-6.2,38.8,22.7,61.1,12.6c0,0-9.1,6.2-18.6,5.5C249.3,445.7,235.4,425.3,216.4,428.4z"/>
							<path class="st4" d="M289,427.5c-10.4,4-30,9.7-54.9-3.5s-45.7,10.4-45.7,10.4s14.4-13.6,32.6-11.9
								c18.1,1.7,23.1,14.8,39.9,15.4C277.7,438.5,289,427.5,289,427.5z"/>
							<path class="st24" d="M275.8,440c-3.6,1.4-10.4,3.4-19.1-1.2c-8.7-4.6-15.9,3.6-15.9,3.6s5-4.7,11.3-4.1s8.1,5.2,13.9,5.4
								C271.9,443.8,275.8,440,275.8,440z"/>
							<path class="st25" d="M257.6,428.4c19-1.2,24-19.2,13.5-6.8c0,0,1.5-13.4,10.6-9.5C288.1,415,285.8,427.8,257.6,428.4z"/>
							<path class="st25" d="M227.7,433.3c4.8,10.5,16.1,9.4,6.7,6.1c0,0,12.8,2.3,11.7,8.5C245.4,452.1,234.2,449.1,227.7,433.3z"
								/>
							<path class="st25" d="M220.7,416.4c11.5,6.8,21.8,1.2,38.8,5c0,0-11.3-0.9-15,1.4C240.9,424.9,224.4,419.7,220.7,416.4z"/>
							<path class="st25" d="M239.4,395.5c9.1,5.4,17.2,1,30.6,3.9c0,0-9-0.7-11.8,1.1C255.4,402.3,242.3,398.1,239.4,395.5z"/>
						</g>
					</g>
					<g>
						<defs>
							<circle id="SVGID_5_" cx="252" cy="423.3" r="26.5"/>
						</defs>
						<clipPath id="SVGID_6_">
							<use xlink:href="#SVGID_5_"  style="overflow:visible;"/>
						</clipPath>
						<path class="st26" d="M249,384.9c10.4,9.6,17,23.3,17,38.6c0,15-6.3,28.6-16.5,38.1c16.9-4.5,29.4-19.9,29.4-38.3
							C278.9,404.8,266.2,389.2,249,384.9z"/>
					</g>
				</g>
			</g>
			<g>
				<path class="st23" d="M235.8,388.1l1-0.6l0.9,9.1l-0.2,0.1l-7.2-5.7l1.1-0.6l5,4L235.8,388.1z"/>
				<path class="st23" d="M239,386.9l4.5-1.3l0.3,1l-3.4,1l0.7,2.4l3.3-1l0.3,1l-3.3,1l0.7,2.5l3.5-1l0.3,1l-4.7,1.4L239,386.9z"/>
				<path class="st23" d="M253.1,384.6h1.1l0.4,8.3h-1l-5.9-6.2l0.3,6.4h-1.1l-0.4-8.3h1l5.9,6.2L253.1,384.6z"/>
				<path class="st23" d="M263.5,386.4l1.2,0.3l-1.1,4.6c-0.2,0.6-0.3,1.1-0.5,1.4s-0.3,0.5-0.5,0.7s-0.4,0.3-0.6,0.4
					c-0.8,0.4-1.7,0.5-2.7,0.2c-1.1-0.3-1.8-0.7-2.3-1.4c-0.2-0.2-0.3-0.4-0.4-0.7s-0.1-0.5-0.1-0.9c0-0.3,0.1-0.8,0.2-1.5l1.1-4.6
					l1.2,0.3l-1.1,4.6c-0.2,0.8-0.2,1.3-0.1,1.7s0.3,0.6,0.6,0.9c0.3,0.3,0.7,0.5,1.2,0.6c0.7,0.2,1.3,0.1,1.8-0.1
					c0.3-0.1,0.5-0.3,0.7-0.6c0.2-0.2,0.3-0.7,0.5-1.3L263.5,386.4z"/>
				<path class="st23" d="M267.2,393.1l-0.6-0.9c-0.4-0.6-0.6-1.1-0.6-1.5c-0.1-0.4,0-0.8,0.2-1.2c0.3-0.6,0.7-1,1.3-1.1
					s1.2-0.1,1.9,0.2c0.6,0.3,1.1,0.8,1.5,1.4l-0.6,1.2c-0.3-0.8-0.7-1.3-1.4-1.6c-0.3-0.2-0.7-0.2-1-0.2s-0.5,0.2-0.6,0.5
					c-0.1,0.2-0.1,0.5-0.1,0.8c0.1,0.3,0.2,0.6,0.5,1l0.6,0.9c0.6,1,0.8,1.9,0.3,2.8c-0.3,0.6-0.7,1-1.3,1.2
					c-0.6,0.2-1.2,0.1-1.8-0.2c-0.7-0.4-1.3-0.9-1.7-1.7l0.7-1.4c0.2,1,0.7,1.7,1.5,2.1c0.3,0.2,0.7,0.2,1,0.1s0.5-0.3,0.7-0.5
					C267.7,394.5,267.6,393.9,267.2,393.1z"/>
			</g>
		</g>
	</a>
	<a href="3" class='planet'>
		<g id="earth_1_">
			<g id="earth">
				<g>
					<path class="st5" d="M252,660.8c-16.3,0-29.5-13.2-29.5-29.5s13.2-29.5,29.5-29.5s29.5,13.2,29.5,29.5
						C281.5,647.5,268.3,660.8,252,660.8z"/>
					<g>
						<path class="st0" d="M252,602.8c15.7,0,28.5,12.8,28.5,28.5s-12.8,28.5-28.5,28.5s-28.5-12.8-28.5-28.5S236.3,602.8,252,602.8
							 M252,600.8c-16.8,0-30.5,13.7-30.5,30.5s13.7,30.5,30.5,30.5s30.5-13.7,30.5-30.5S268.8,600.8,252,600.8L252,600.8z"/>
					</g>
				</g>
				<g>
					<g>
						<defs>
							<circle id="SVGID_7_" cx="252" cy="631.3" r="28.5"/>
						</defs>
						<clipPath id="SVGID_8_">
							<use xlink:href="#SVGID_7_"  style="overflow:visible;"/>
						</clipPath>
						<g class="st27">
							<path class="st28" d="M278.7,662.1c0,9.1-7.6,15.4-13.6,15.4s-10.8-7.4-10.8-16.6s3.9-9.4,9.9-9.4S278.7,653,278.7,662.1z"/>
							<path class="st28" d="M283.7,624.5c0,9.1-7.7,16.7-13.7,16.7s-16.6-2.4-16.8-12.2c-0.3-10.1,12.4-6.9,22-21.1
								C279.7,601.3,283.7,615.4,283.7,624.5z"/>
							<path class="st28" d="M240.3,635.1c6.2,2.9,1.6,24.7-1.9,24.7s-15.8-18.9-15.8-24.2s5.4,2,8.8,2
								C234.9,637.7,235.5,632.8,240.3,635.1z"/>
							<path class="st28" d="M245.4,603.1c0,9.1-7.7,16.7-13.7,16.7s-17-6.6-17-15.8s10.1-11.5,16.1-11.5S245.4,594,245.4,603.1z"/>
							<path class="st29" d="M229.8,618.3c0.1,0.8-1.1,1.3-1.4,2.3c-0.3,1-2.6,1.8-0.6,2.5s1.1,1.7,0.6,3c-0.6,1.3-1.1,1.8,0,2.8
								s-1.9,1.5-1.4,2.3s0.3,1,0,2s-1.7,1.3-0.5,2.6s-4.8,0.3-2.9,1.1c1.9,0.8-4-5.5-3.5-8.1c0.6-2.6,1.7-1.9,1.9-5
								s1.6-5.1,1.6-5.1l1.4-2c0,0,2.7-1.8,3.9-0.9S229.8,618.3,229.8,618.3z"/>
							<path class="st29" d="M225.9,641.2c0.3,0.2,0.1,0.8,0.3,0.9c0.3,0.1,0.6,0.3,1,0.3c0.3,0,0.6,0.7,0.8,1s0.1,0.7,0.6,0.7
								s1-0.3,1.6-0.6c0.6-0.4,2.1-0.2,2.1-0.2l0.5,0.3c0,0,0.2,0.5,1.5-0.6s2.7-2.6,3.1-1.7c0.4,0.9,0,2,0.4,2.2s1.5,0.5,1.9,0.2
								s0.9-0.9,1.4-0.2c0.4,0.8,3.2,1.3,3.2,1.9c0,1.4-2.5,1.8-2.8,2.6s-1.2,0.8-0.9,1.7s-0.2,0.8-0.3,1.7s-0.2,1,0.3,1.5
								s-0.1,2.3,0.4,2.9c0.5,0.6,0.2,2.1,0.2,2.6s-7.1-3.7-8-3.8s-3.1-2.6-2.9-3.7s0.5-2.8-0.9-3.4c-1.5-0.5-1.2-1.1-1.7-2.3
								s-1.2-1.9-2.1-1.8c-0.8,0.1-2-2.6-2-2.6L225.9,641.2z"/>
							<path class="st29" d="M259.3,623.6c0.4,0.3,0.1,1.4,0.5,1.6c0.4,0.2,1,0.6,1.5,0.6s0.9,1.3,1.2,1.9c0.3,0.6,0.2,1.3,0.9,1.3
								c0.8,0,1.5-0.5,2.5-1.2s3.3-0.4,3.3-0.4l0.8,0.5c0,0,0.3,0.9,2.4-1.1s4.2-4.9,4.9-3.3c0.7,1.6,0,3.8,0.6,4.2s2.3,1,3,0.4
								s1.4-1.7,2.1-0.3s5,2.4,5.1,3.7c0.1,2.6-4,3.5-4.4,4.9s-1.9,1.5-1.4,3.3c0.4,1.7-0.3,1.5-0.4,3.3s-0.3,1.9,0.5,2.9
								c0.8,0.9-0.1,4.4,0.7,5.5c0.8,1.1,0.3,3.9,0.3,4.9s-11.1-6.9-12.6-7.1c-1.4-0.2-4.9-4.9-4.5-6.9s0.8-5.3-1.4-6.3
								c-2.3-1-1.9-2-2.7-4.4c-0.8-2.3-1.9-3.7-3.2-3.5c-1.3,0.2-3.2-4.9-3.2-4.9L259.3,623.6z"/>
							<path class="st29" d="M234.1,606.2c0.6,0.7-0.9,3.6,1,4.1s3.8,1.2,3.7,2.1c-0.1,1,1.5,1.6,2,1.8s1-0.4,1.3,0s0,1.6,0,1.6
								s2.7,1,2.5,1.7c-0.2,0.6-0.7,2.7-1.3,2.8s-0.8,0.5-0.8,0.8s1.3-0.3,2-1c0.7-0.6,1.4-1.4,1.1-1.7c-0.3-0.3-0.5-0.1,0.6-0.8
								s1.3-1.5,1.3-1.5s-0.8-1-0.6-1.4s1.4-0.9,1.7-0.3s0.7,0.3,0.7,0.3l0.9-1.6c0,0,0.2-0.5,0.7-0.9s0-0.6-0.4-1
								c-0.4-0.3,0.4-0.4,0.6-0.5s0.7,0.3,0.7,0.3s1,0,1.5-0.3s0.6-1.4,0.6-1.4l1.1-0.8l0.8-1.2c0,0,0.1-0.3,0-1.2s0.9-1.3,0.9-1.3
								v-1.1c0,0,0.3,1.7,0-1.6c-0.3-3.4-18.5,0.6-18.5,0.6L234.1,606.2z"/>
							<g class="st30">
								<path class="st31" d="M250.5,591.2c11.8,9.4,19.3,23.8,19.3,40.1c0,16.2-7.6,30.7-19.3,40.1c19.1-3.3,33.7-20,33.7-40.1
									C284.2,611.2,269.6,594.5,250.5,591.2z"/>
							</g>
						</g>
					</g>
				</g>
			</g>
			<g>
				<path class="st5" d="M228.6,598l4.6-2.8l0.6,1l-3.4,2.1l1.5,2.5l3.3-2l0.6,1l-3.3,2l1.6,2.5l3.6-2.2l0.6,1l-4.7,2.9L228.6,598z"
					/>
				<path class="st5" d="M239.1,592.7l0.9-0.3l7,7.9l-1.3,0.4l-2.1-2.3l-3.9,1.2l-0.3,3.1l-1.3,0.4L239.1,592.7z M242.7,597.4
					l-2.5-2.8l-0.3,3.7L242.7,597.4z"/>
				<path class="st5" d="M247.5,600.4l-0.4-9.5l2.4-0.1c1,0,1.7,0.2,2.3,0.6c0.6,0.5,0.9,1.1,0.9,1.9c0,0.6-0.1,1-0.4,1.5
					s-0.6,0.7-1.2,1c0.3,0.2,0.6,0.4,0.9,0.8c0.3,0.3,0.7,0.9,1.3,1.8c0.4,0.5,0.6,0.9,0.9,1.2l0.5,0.7l-1.6,0.1l-0.4-0.6
					c0,0,0-0.1-0.1-0.1l-0.3-0.4l-0.5-0.7l-0.5-0.7c-0.3-0.4-0.6-0.7-0.8-0.9s-0.5-0.4-0.7-0.5s-0.5-0.1-1-0.1h-0.4l0.2,4.2
					L247.5,600.4z M249,592h-0.4l0.1,3h0.5c0.7,0,1.2-0.1,1.4-0.2c0.3-0.1,0.4-0.3,0.6-0.6c0.1-0.2,0.2-0.5,0.2-0.8
					s-0.1-0.6-0.3-0.8s-0.4-0.4-0.7-0.5C250.1,592,249.6,591.9,249,592z"/>
				<path class="st5" d="M255,590.6l7.9,1.4l-0.2,1.2l-3.3-0.6l-1.4,8.2l-1.4-0.2l1.4-8.2l-3.2-0.6L255,590.6z"/>
				<path class="st5" d="M272.1,595.9l1.2,0.6l-4.1,8.6l-1.2-0.6l1.8-3.7l-4.8-2.3l-1.8,3.7l-1.2-0.6l4.1-8.6l1.2,0.6l-1.8,3.7
					l4.8,2.3L272.1,595.9z"/>
			</g>
		</g>
		<g id="moon_1_">
			<g>
				<g>
					<path class="st32 satelite-path" d="M252,678c-25.7,0-46.7-20.9-46.7-46.7s20.9-46.7,46.7-46.7c25.7,0,46.7,20.9,46.7,46.7S277.7,678,252,678
						z M252,585.4c-25.3,0-45.9,20.6-45.9,45.9s20.6,45.9,45.9,45.9s45.9-20.6,45.9-45.9S277.3,585.4,252,585.4z"/>
				</g>
			</g>
			<g id="moon" class="satelite">
				<circle class="st33" cx="205.7" cy="629.6" r="6.1"/>
				<g>
					<path class="st0" d="M205.7,624c3.1,0,5.6,2.5,5.6,5.6s-2.5,5.6-5.6,5.6s-5.6-2.5-5.6-5.6C200.2,626.5,202.7,624,205.7,624
						 M205.7,623c-3.6,0-6.6,3-6.6,6.6s3,6.6,6.6,6.6s6.6-3,6.6-6.6S209.4,623,205.7,623L205.7,623z"/>
				</g>
			</g>
		</g>
	</a>
	<a href="4" class="planet">
		<g id="mars_1_">
			<g id="mars">
				<g>
					<path class="st34" d="M252,843.1c-9,0-16.3-7.3-16.3-16.3s7.3-16.3,16.3-16.3s16.3,7.3,16.3,16.3S261,843.1,252,843.1z"/>
					<g>
						<path class="st0" d="M252,811.4c8.5,0,15.3,6.9,15.3,15.3c0,8.5-6.9,15.3-15.3,15.3s-15.3-6.9-15.3-15.3
							C236.7,818.2,243.5,811.4,252,811.4 M252,809.4c-9.6,0-17.3,7.8-17.3,17.3S242.5,844,252,844s17.3-7.8,17.3-17.3
							S261.6,809.4,252,809.4L252,809.4z"/>
					</g>
				</g>
				<g>
					<g>
						<defs>
							<circle id="SVGID_9_" cx="252" cy="826.7" r="15.3"/>
						</defs>
						<clipPath id="SVGID_10_">
							<use xlink:href="#SVGID_9_"  style="overflow:visible;"/>
						</clipPath>
						<path class="st35" d="M269.4,821.7c-2-0.6-4.7,1-5.2,0.4c-0.4-0.6-2.6-5.9-1.2-6.7s-2.8-5.6-6.1-6c-3.3-0.4-6.6,0.8-7.4,1.4
							c-0.8,0.6-1,2.5-2.1,2.9s-0.3-1.7-1.7-1.6c-1.4,0.1-4.8,1.7-6,2.8c-1.1,1.1,2.3-0.1,3.4,1.4c1,1.6,1.1,3.1-1.7,4.4
							c-2.8,1.4-3.3-1.5-4.8,0.3c-1.4,1.8,0,3,0,3s0,1.3,1.1,1.2c2.3-0.2,1.9,2.2-1.1,1.4s-2.7,0.9-2.7,0.9c0.2,3.3,6.1,3.8,7.5,5.7
							c1.3,1.9-0.2,4.8-1.1,5.6c-0.8,0.8,0.6,2.6,0.6,2.6s0.9-4.1,3.1-4.4c2.2-0.3,9.5,0.5,11.2,1.2s-0.3,2.7-2.1,2.5
							s-4.6,1.4-7,1.2s-1.5,3.9,2.9,3.9s15.7-4.8,16.2-6.8s-2.6-3.1-3.9-2.8s-2.6-0.9-2.7-1.9s1.7,0,2.5-1s2.4-3.7,3.4-3.5
							s5.5,1.5,6.1,0.9C271.3,830.2,271.3,822.3,269.4,821.7z M265.2,825.7c-0.1,0.5-1.3-0.6-0.9,1c0.4,1.5-3.9,4.9-3.8,3.1
							s-2.1-4.5-4-3.3c-1.9,1.1,0.2,5-0.9,6.6s-7.9,1.1-11,0.3s-5.8-2.5-6.1-4.2c-0.1-0.8,3.7-3.1,3.4-4.6s0.8-2.5,1.8-3.1
							c0.9-0.6,1.3-2.2,1.1-3.5c-0.1-1.3,1-2.3,1.8-3.1s3.6-1.7,3.6-0.6c-0.1,1.1-2.8,2.4-3.9,2.5c-1.1,0.1-0.3,2.5,0.2,2.6
							s0.2,1.6,0.2,1.6s0.9-2.9,2.4-3.6c1.4-0.8,1-2.1,2.3-3.4c1.3-1.3,3-0.2,3.9,0.4c0.9,0.6,0,1.9,0,1.9c1.8-0.7,1.9-2.4,1.8-3.6
							c-0.1-1.2-3.7-2-1.1-2.1c2.5-0.1,3.5,1.3,5,2.7c1.6,1.4,0.7,5,0.3,5.8s1.4,2.8,2.4,3.3C264.5,822.9,265.3,825.2,265.2,825.7z"
							/>
					</g>
					<g>
						<defs>
							<circle id="SVGID_11_" cx="252" cy="826.7" r="15.3"/>
						</defs>
						<clipPath id="SVGID_12_">
							<use xlink:href="#SVGID_11_"  style="overflow:visible;"/>
						</clipPath>
						<g class="st36">
							<path class="st37" d="M251.6,818.2c-1.2,1-1.4,2.3-0.5,2.6s2.7-1.6,2.3-2.2C253,817.9,251.6,818.2,251.6,818.2z"/>
							<path class="st37" d="M260,812.1c-1.5-2.3-3.6,1.7-2.5,2.2c1.2,0.5,3.8-1.4,4-0.3c0.2,1.2,3.2-0.5,2.9-1.6
								S260.3,812.6,260,812.1z"/>
							<path class="st37" d="M266.5,833c-1.5-2.3-3.6,1.7-2.5,2.2c1.2,0.5,3.8-1.4,4-0.3c0.2,1.2,3.2-0.5,2.9-1.6
								C270.7,832.2,266.8,833.5,266.5,833z"/>
							<path class="st37" d="M259.1,819.8c1.7-0.7,1.9,1.4,1.6,2.3s-1.7,0.4-1,1.8c0.7,1.4-3.3,1.2-2.9,0
								C257.1,822.7,257.5,820.4,259.1,819.8z"/>
							<path class="st37" d="M244.6,825.7c1.7-0.7,1.9,1.4,1.6,2.3s0.2,0.9-1,1.8c-2.6,1.9-3.3,1.2-2.9,0
								C242.6,828.6,243,826.3,244.6,825.7z"/>
							<path class="st37" d="M253.2,829.9c0.5,0.8,1,0.7,0.8,1.2c-0.1,0.5,0.1,0.4-0.5,0.9c-1.3,0.9-1.6,0.6-1.5,0
								S252.4,828.6,253.2,829.9z"/>
							<path class="st37" d="M239.1,815.3c1.7-0.7,1.9,1.4,1.6,2.3s0.2,0.9-1,1.8c-2.6,1.9-3.3,1.2-2.9,0
								C237.1,818.2,237.5,815.9,239.1,815.3z"/>
							<path class="st37" d="M245.7,839.5c1.7-0.7,1.9,1.4,1.6,2.3c-0.3,0.9,0.2,0.9-1,1.8c-2.6,1.9-3.3,1.2-2.9,0
								S244.1,840.2,245.7,839.5z"/>
						</g>
					</g>
					<g>
						<defs>
							<circle id="SVGID_13_" cx="252" cy="826.7" r="15.3"/>
						</defs>
						<clipPath id="SVGID_14_">
							<use xlink:href="#SVGID_13_"  style="overflow:visible;"/>
						</clipPath>
						<g class="st38">
							<path d="M252.1,808c5.3,4.5,8.7,11.1,8.7,18.6c0,7.6-3.5,14.4-9,18.9c9.1-1.5,16-9.3,16-18.8
								C267.7,817.4,261,809.6,252.1,808z"/>
						</g>
					</g>
				</g>
			</g>
			<g>
				<path class="st6" d="M241.3,803.3l0.8-0.5l3.6,6.2l-0.9,0.5l-2.8-4.8l-0.5,3.5l-0.2,0.1L238,807l2.8,4.8l-0.9,0.5l-3.6-6.2
					l0.8-0.5l3.5,1.3L241.3,803.3z"/>
				<path class="st6" d="M247.9,801.3l0.7-0.1l4.2,6.7l-1,0.2l-1.3-2l-3,0.4l-0.6,2.2l-1,0.2L247.9,801.3z M250,805.2l-1.5-2.4
					l-0.7,2.7L250,805.2z"/>
				<path class="st6" d="M253.1,808.1l1.3-7l1.8,0.3c0.7,0.1,1.2,0.4,1.6,0.9c0.4,0.4,0.5,0.9,0.4,1.5c-0.1,0.4-0.2,0.7-0.5,1
					s-0.6,0.4-1,0.5c0.2,0.2,0.4,0.4,0.5,0.7c0.2,0.3,0.4,0.8,0.7,1.5c0.2,0.4,0.3,0.8,0.4,1l0.3,0.6l-1.2-0.2l-0.2-0.5v-0.1
					l-0.1-0.3l-0.2-0.6l-0.2-0.6c-0.2-0.3-0.3-0.6-0.4-0.8s-0.3-0.4-0.4-0.5c-0.1-0.1-0.4-0.2-0.7-0.2h-0.3l-0.6,3.1L253.1,808.1z
					 M255.6,802.2l-0.3-0.1l-0.4,2.2l0.4,0.1c0.5,0.1,0.9,0.1,1.1,0.1c0.2-0.1,0.4-0.2,0.5-0.3c0.1-0.2,0.2-0.3,0.3-0.6
					c0-0.2,0-0.4-0.1-0.6c-0.1-0.2-0.2-0.4-0.4-0.5S256.1,802.2,255.6,802.2z"/>
				<path class="st6" d="M261.7,807.5l-0.5-0.8c-0.3-0.5-0.5-0.9-0.5-1.3c-0.1-0.4,0-0.7,0.2-1c0.3-0.5,0.6-0.8,1.1-1
					c0.5-0.1,1-0.1,1.6,0.2c0.5,0.3,0.9,0.7,1.2,1.2l-0.5,1c-0.2-0.7-0.6-1.1-1.2-1.4c-0.3-0.2-0.6-0.2-0.8-0.2
					c-0.3,0-0.4,0.2-0.6,0.4c-0.1,0.2-0.1,0.4-0.1,0.6c0.1,0.2,0.2,0.5,0.4,0.9l0.5,0.8c0.5,0.9,0.6,1.6,0.3,2.4
					c-0.3,0.5-0.6,0.8-1.1,1c-0.5,0.1-1,0.1-1.6-0.2s-1.1-0.8-1.4-1.5l0.6-1.2c0.2,0.9,0.6,1.5,1.2,1.8c0.3,0.1,0.6,0.2,0.8,0.1
					c0.3-0.1,0.5-0.2,0.6-0.5C262.1,808.7,262,808.2,261.7,807.5z"/>
			</g>
		</g>
		<g id="phobos_1_">
			<g>
				<path class="st32 satelite-path" d="M252,858.2c-17.4,0-31.5-14.2-31.5-31.5s14.2-31.5,31.5-31.5s31.5,14.2,31.5,31.5S269.4,858.2,252,858.2z
					 M252,795.7c-17.1,0-31,13.9-31,31s13.9,31,31,31s31-13.9,31-31S269.1,795.7,252,795.7z"/>
			</g>
			<g id="phobos" class="satelite">
				<circle class="st33" cx="220.8" cy="825.7" r="2.8"/>
				<g>
					<path class="st0" d="M220.8,823.4c1.3,0,2.3,1,2.3,2.3s-1,2.3-2.3,2.3s-2.3-1-2.3-2.3C218.4,824.4,219.5,823.4,220.8,823.4
						 M220.8,822.4c-1.8,0-3.3,1.5-3.3,3.3s1.5,3.3,3.3,3.3s3.3-1.5,3.3-3.3S222.6,822.4,220.8,822.4L220.8,822.4z"/>
				</g>
			</g>
		</g>
		<g id="deimos">
			<g id="path_4_">
				<path class="st32 satelite-path" d="M252,862.5c-19.8,0-35.8-16.1-35.8-35.8s16.1-35.8,35.8-35.8s35.8,16.1,35.8,35.8S271.8,862.5,252,862.5z
					 M252,791.1c-19.6,0-35.6,16-35.6,35.6s16,35.6,35.6,35.6s35.6-16,35.6-35.6S271.6,791.1,252,791.1z"/>
			</g>
			<g id="demois" class='satelite'>
				<circle class="st33" cx="287.8" cy="825" r="1.9"/>
				<g>
					<path class="st0" d="M287.8,823.4c0.9,0,1.6,0.7,1.6,1.6c0,0.9-0.7,1.6-1.6,1.6s-1.6-0.7-1.6-1.6
						C286.1,824.1,286.9,823.4,287.8,823.4 M287.8,822.9c-1.2,0-2.1,1-2.1,2.1c0,1.2,1,2.1,2.1,2.1c1.2,0,2.1-1,2.1-2.1
						C289.9,823.8,289,822.9,287.8,822.9L287.8,822.9z"/>
				</g>
			</g>
		</g>
	</a>
	<text transform="matrix(1 0 0 1 94.0054 48.2808)" class="st1 st39 st40">TERRESTRIAL</text>
	<text transform="matrix(1 0 0 1 145.0176 84.252)" class="st1 st39 st40">PLANETS</text>
</g>
</svg>
